<svg width="16" height="14" viewBox="0 0 16 14" fill="none" xmlns="http://www.w3.org/2000/svg">
<path d="M14.2716 6.68627C14.1988 6.72619 14.1988 6.7661 14.2716 6.80602C15.4238 7.45803 16 8.54246 16 10.0593C16 11.35 15.5997 12.328 14.7992 12.9933C13.9986 13.6453 12.9494 13.9713 11.6516 13.9713H8.67036C8.67036 14.1139 8.65727 13.6855 8.67036 13.5436C8.94487 10.5686 6.33111 11.5363 6.72099 11.5363V0.239508C6.72099 0.172988 6.73918 0.119754 6.77557 0.0798362C6.82409 0.0266027 6.87867 0 6.93932 0H11.506C14.3807 0 15.8181 1.27738 15.8181 3.83213C15.8181 5.16274 15.3026 6.1141 14.2716 6.68627ZM9.37733 2.41504C9.31669 2.41504 9.28636 2.44831 9.28636 2.51484V5.62844C9.28636 5.69496 9.31669 5.72824 9.37733 5.72824H11.506C12.0761 5.72824 12.5189 5.58188 12.8342 5.28914C13.1496 4.9964 13.3073 4.59722 13.3073 4.0916C13.3073 3.57266 13.1496 3.16684 12.8342 2.8741C12.5189 2.56807 12.0761 2.41504 11.506 2.41504H9.37733ZM11.6516 11.5363C12.2096 11.5363 12.6462 11.3833 12.9616 11.0773C13.2769 10.7579 13.4346 10.3255 13.4346 9.77991C13.4346 9.23438 13.2769 8.80857 12.9616 8.50254C12.6462 8.18319 12.2035 8.02352 11.6334 8.02352H9.37733C9.31669 8.02352 9.28636 8.0568 9.28636 8.12332V11.4365C9.28636 11.503 9.31669 11.5363 9.37733 11.5363H11.6516Z" fill="#D55816"/>
<rect x="8.18896" y="2.19608" width="5.79528" height="9.60784" fill="#D55816"/>
<path d="M6.41228 0H9.363V9.50429H4.10303L6.41228 0Z" fill="#D55816"/>
<path d="M8.8189 14C8.6872 14 8.56399 13.6321 8.52807 13.5017L8.06109 11.7602C8.03715 11.708 8.0072 11.6819 7.97128 11.6819H3.8762C3.84028 11.6819 3.81036 11.708 3.7864 11.7602L3.31942 13.5017C3.2835 13.6321 3.15535 14 3.02362 14H0.377953C0.306109 14 0.125984 14 0 14C0 14 0.116406 13.5147 0.140353 13.4234L3.98397 0.195677C4.01989 0.0652164 4.09774 0 4.21746 0H7.61206C7.73181 0 7.80963 0.0652164 7.84556 0.195677L11.7071 13.4234C11.7191 13.4495 11.8784 14 11.8425 14C11.3386 14 11.7223 14 11.5906 14H8.8189ZM4.50483 9.05983C4.49288 9.1381 4.51682 9.17723 4.57668 9.17723H7.25285C7.32469 9.17723 7.34866 9.1381 7.32469 9.05983L5.95967 4.03094C5.94771 3.97875 5.92975 3.95918 5.90578 3.97223C5.88184 3.97223 5.86388 3.9918 5.8519 4.03094L4.50483 9.05983Z" fill="#6881E3"/>
</svg>
