<svg width="16" height="16" viewBox="0 0 16 16" fill="none" xmlns="http://www.w3.org/2000/svg">
<path d="M14.2716 7.68627C14.1988 7.72619 14.1988 7.7661 14.2716 7.80602C15.4238 8.45803 16 9.54246 16 11.0593C16 12.35 15.5997 13.328 14.7992 13.9933C13.9986 14.6453 12.9494 14.9713 11.6516 14.9713H8.67036C8.67036 15.1139 8.65727 14.6855 8.67036 14.5436C8.94487 11.5686 6.33111 12.5363 6.72099 12.5363V1.23951C6.72099 1.17299 6.73918 1.11975 6.77557 1.07984C6.82409 1.0266 6.87867 1 6.93932 1H11.506C14.3807 1 15.8181 2.27738 15.8181 4.83213C15.8181 6.16274 15.3026 7.1141 14.2716 7.68627ZM9.37733 3.41504C9.31669 3.41504 9.28636 3.44831 9.28636 3.51484V6.62844C9.28636 6.69496 9.31669 6.72824 9.37733 6.72824H11.506C12.0761 6.72824 12.5189 6.58188 12.8342 6.28914C13.1496 5.9964 13.3073 5.59722 13.3073 5.0916C13.3073 4.57266 13.1496 4.16684 12.8342 3.8741C12.5189 3.56807 12.0761 3.41504 11.506 3.41504H9.37733ZM11.6516 12.5363C12.2096 12.5363 12.6462 12.3833 12.9616 12.0773C13.2769 11.7579 13.4346 11.3255 13.4346 10.7799C13.4346 10.2344 13.2769 9.80857 12.9616 9.50254C12.6462 9.18319 12.2035 9.02352 11.6334 9.02352H9.37733C9.31669 9.02352 9.28636 9.0568 9.28636 9.12332V12.4365C9.28636 12.503 9.31669 12.5363 9.37733 12.5363H11.6516Z" fill="#D55816"/>
<rect x="8.18896" y="3.19608" width="5.79528" height="9.60784" fill="#D55816"/>
<path d="M6.41228 1H9.363V10.5043H4.10303L6.41228 1Z" fill="#D55816"/>
<path d="M8.8189 15C8.6872 15 8.56399 14.6321 8.52807 14.5017L8.06109 12.7602C8.03715 12.708 8.0072 12.6819 7.97128 12.6819H3.8762C3.84028 12.6819 3.81036 12.708 3.7864 12.7602L3.31942 14.5017C3.2835 14.6321 3.15535 15 3.02362 15H0.377953C0.306109 15 0.125984 15 0 15C0 15 0.116406 14.5147 0.140353 14.4234L3.98397 1.19568C4.01989 1.06522 4.09774 1 4.21746 1H7.61206C7.73181 1 7.80963 1.06522 7.84556 1.19568L11.7071 14.4234C11.7191 14.4495 11.8784 15 11.8425 15C11.3386 15 11.7223 15 11.5906 15H8.8189ZM4.50483 10.0598C4.49288 10.1381 4.51682 10.1772 4.57668 10.1772H7.25285C7.32469 10.1772 7.34866 10.1381 7.32469 10.0598L5.95967 5.03094C5.94771 4.97875 5.92975 4.95918 5.90578 4.97223C5.88184 4.97223 5.86388 4.9918 5.8519 5.03094L4.50483 10.0598Z" fill="#2F3B69"/>
</svg>
