<svg width="202" height="60" viewBox="0 0 202 60" fill="none" xmlns="http://www.w3.org/2000/svg">
<path d="M91.5653 40.2653C92.1413 40.2653 92.5973 40.3773 92.9333 40.6013C93.0613 40.6653 93.1093 40.7853 93.0773 40.9613L92.5733 43.6973C92.5573 43.8893 92.4453 43.9453 92.2373 43.8653C91.9973 43.7853 91.7173 43.7453 91.3973 43.7453C91.2693 43.7453 91.0933 43.7613 90.8693 43.7933C90.2933 43.8413 89.8053 44.0573 89.4053 44.4413C89.0053 44.8093 88.8053 45.3053 88.8053 45.9293V52.4813C88.8053 52.5613 88.7733 52.6333 88.7093 52.6973C88.6613 52.7453 88.5973 52.7693 88.5173 52.7693H85.7093C85.6293 52.7693 85.5573 52.7453 85.4933 52.6973C85.4453 52.6333 85.4213 52.5613 85.4213 52.4813V40.7213C85.4213 40.6413 85.4453 40.5773 85.4933 40.5293C85.5573 40.4653 85.6293 40.4333 85.7093 40.4333H88.5173C88.5973 40.4333 88.6613 40.4653 88.7093 40.5293C88.7733 40.5773 88.8053 40.6413 88.8053 40.7213V41.6333C88.8053 41.6813 88.8213 41.7133 88.8533 41.7293C88.8853 41.7453 88.9093 41.7373 88.9253 41.7053C89.5813 40.7453 90.4613 40.2653 91.5653 40.2653ZM105.409 40.7213C105.409 40.6413 105.433 40.5773 105.481 40.5293C105.545 40.4653 105.617 40.4333 105.697 40.4333H108.505C108.585 40.4333 108.649 40.4653 108.697 40.5293C108.761 40.5773 108.793 40.6413 108.793 40.7213V52.4813C108.793 52.5613 108.761 52.6333 108.697 52.6973C108.649 52.7453 108.585 52.7693 108.505 52.7693H105.697C105.617 52.7693 105.545 52.7453 105.481 52.6973C105.433 52.6333 105.409 52.5613 105.409 52.4813V51.6653C105.409 51.6173 105.393 51.5933 105.361 51.5933C105.329 51.5773 105.297 51.5933 105.265 51.6413C104.625 52.5053 103.633 52.9373 102.289 52.9373C101.073 52.9373 100.073 52.5693 99.2888 51.8333C98.5048 51.0973 98.1128 50.0653 98.1128 48.7373V40.7213C98.1128 40.6413 98.1368 40.5773 98.1848 40.5293C98.2488 40.4653 98.3208 40.4333 98.4008 40.4333H101.185C101.265 40.4333 101.329 40.4653 101.377 40.5293C101.441 40.5773 101.473 40.6413 101.473 40.7213V47.8973C101.473 48.5373 101.641 49.0573 101.977 49.4573C102.329 49.8573 102.809 50.0573 103.417 50.0573C103.961 50.0573 104.409 49.8973 104.761 49.5773C105.113 49.2413 105.329 48.8093 105.409 48.2813V40.7213ZM121.319 40.2413C122.599 40.2413 123.631 40.6333 124.415 41.4173C125.199 42.2013 125.591 43.2653 125.591 44.6093V52.4813C125.591 52.5613 125.559 52.6333 125.495 52.6973C125.447 52.7453 125.383 52.7693 125.303 52.7693H122.495C122.415 52.7693 122.343 52.7453 122.279 52.6973C122.231 52.6333 122.207 52.5613 122.207 52.4813V45.3053C122.207 44.6653 122.023 44.1453 121.655 43.7453C121.303 43.3453 120.831 43.1453 120.239 43.1453C119.647 43.1453 119.167 43.3453 118.799 43.7453C118.447 44.1453 118.271 44.6653 118.271 45.3053V52.4813C118.271 52.5613 118.239 52.6333 118.175 52.6973C118.127 52.7453 118.063 52.7693 117.983 52.7693H115.175C115.095 52.7693 115.023 52.7453 114.959 52.6973C114.911 52.6333 114.887 52.5613 114.887 52.4813V40.7213C114.887 40.6413 114.911 40.5773 114.959 40.5293C115.023 40.4653 115.095 40.4333 115.175 40.4333H117.983C118.063 40.4333 118.127 40.4653 118.175 40.5293C118.239 40.5773 118.271 40.6413 118.271 40.7213V41.5613C118.271 41.6093 118.287 41.6413 118.319 41.6573C118.351 41.6733 118.375 41.6653 118.391 41.6333C119.047 40.7053 120.023 40.2413 121.319 40.2413ZM142.462 45.3293C142.558 45.9373 142.59 46.6173 142.558 47.3693C142.542 47.5613 142.438 47.6573 142.246 47.6573H134.83C134.734 47.6573 134.702 47.6973 134.734 47.7773C134.782 48.0973 134.87 48.4173 134.998 48.7373C135.414 49.6333 136.262 50.0813 137.542 50.0813C138.566 50.0653 139.374 49.6493 139.966 48.8333C140.03 48.7373 140.102 48.6893 140.182 48.6893C140.23 48.6893 140.286 48.7213 140.35 48.7853L142.078 50.4893C142.158 50.5693 142.198 50.6413 142.198 50.7053C142.198 50.7373 142.166 50.8013 142.102 50.8973C141.574 51.5533 140.894 52.0653 140.062 52.4333C139.23 52.7853 138.318 52.9613 137.326 52.9613C135.95 52.9613 134.782 52.6493 133.822 52.0253C132.878 51.4013 132.198 50.5293 131.782 49.4093C131.446 48.6093 131.278 47.5613 131.278 46.2653C131.278 45.3853 131.398 44.6093 131.638 43.9373C132.006 42.8013 132.646 41.8973 133.558 41.2253C134.486 40.5533 135.582 40.2173 136.846 40.2173C138.446 40.2173 139.726 40.6813 140.686 41.6093C141.662 42.5373 142.254 43.7773 142.462 45.3293ZM136.87 43.1453C135.862 43.1453 135.198 43.6173 134.878 44.5613C134.814 44.7693 134.758 45.0253 134.71 45.3293C134.71 45.4093 134.75 45.4493 134.83 45.4493H138.982C139.078 45.4493 139.11 45.4093 139.078 45.3293C138.998 44.8653 138.958 44.6413 138.958 44.6573C138.814 44.1773 138.558 43.8093 138.19 43.5533C137.838 43.2813 137.398 43.1453 136.87 43.1453ZM153.046 40.2413C154.086 40.2413 155.014 40.4253 155.83 40.7933C156.646 41.1453 157.278 41.6333 157.726 42.2573C158.19 42.8813 158.422 43.5773 158.422 44.3453V52.4813C158.422 52.5613 158.39 52.6333 158.326 52.6973C158.278 52.7453 158.214 52.7693 158.134 52.7693H155.326C155.246 52.7693 155.174 52.7453 155.11 52.6973C155.062 52.6333 155.038 52.5613 155.038 52.4813V51.6893C155.038 51.6413 155.022 51.6093 154.99 51.5933C154.958 51.5773 154.926 51.5933 154.894 51.6413C154.222 52.5213 153.142 52.9613 151.654 52.9613C150.406 52.9613 149.398 52.6573 148.63 52.0493C147.862 51.4413 147.478 50.5453 147.478 49.3613C147.478 48.1293 147.91 47.1773 148.774 46.5053C149.638 45.8173 150.87 45.4733 152.47 45.4733H154.918C154.998 45.4733 155.038 45.4333 155.038 45.3533V44.8253C155.038 44.2973 154.878 43.8893 154.558 43.6013C154.238 43.2973 153.758 43.1453 153.118 43.1453C152.622 43.1453 152.206 43.2333 151.87 43.4093C151.55 43.5853 151.342 43.8333 151.246 44.1533C151.198 44.3293 151.094 44.4093 150.934 44.3933L148.03 44.0093C147.838 43.9773 147.75 43.9053 147.766 43.7933C147.83 43.1213 148.094 42.5133 148.558 41.9693C149.038 41.4253 149.662 41.0013 150.43 40.6973C151.214 40.3933 152.086 40.2413 153.046 40.2413ZM152.566 50.4413C153.254 50.4413 153.838 50.2573 154.318 49.8893C154.798 49.5213 155.038 49.0493 155.038 48.4733V47.6093C155.038 47.5293 154.998 47.4893 154.918 47.4893H153.19C152.47 47.4893 151.902 47.6253 151.486 47.8973C151.086 48.1693 150.886 48.5533 150.886 49.0493C150.886 49.4813 151.038 49.8253 151.342 50.0813C151.646 50.3213 152.054 50.4413 152.566 50.4413ZM171.606 40.7213C171.606 40.6413 171.63 40.5773 171.678 40.5293C171.742 40.4653 171.814 40.4333 171.894 40.4333H174.702C174.782 40.4333 174.846 40.4653 174.894 40.5293C174.958 40.5773 174.99 40.6413 174.99 40.7213V52.4813C174.99 52.5613 174.958 52.6333 174.894 52.6973C174.846 52.7453 174.782 52.7693 174.702 52.7693H171.894C171.814 52.7693 171.742 52.7453 171.678 52.6973C171.63 52.6333 171.606 52.5613 171.606 52.4813V51.6653C171.606 51.6173 171.59 51.5933 171.558 51.5933C171.526 51.5773 171.494 51.5933 171.462 51.6413C170.822 52.5053 169.83 52.9373 168.486 52.9373C167.27 52.9373 166.27 52.5693 165.486 51.8333C164.702 51.0973 164.31 50.0653 164.31 48.7373V40.7213C164.31 40.6413 164.334 40.5773 164.382 40.5293C164.446 40.4653 164.518 40.4333 164.598 40.4333H167.382C167.462 40.4333 167.526 40.4653 167.574 40.5293C167.638 40.5773 167.67 40.6413 167.67 40.7213V47.8973C167.67 48.5373 167.838 49.0573 168.174 49.4573C168.526 49.8573 169.006 50.0573 169.614 50.0573C170.158 50.0573 170.606 49.8973 170.958 49.5773C171.31 49.2413 171.526 48.8093 171.606 48.2813V40.7213ZM180.604 52.7693C180.492 52.7693 180.412 52.7373 180.364 52.6733C180.332 52.5933 180.348 52.5053 180.412 52.4093L184.276 46.6733C184.308 46.6253 184.308 46.5773 184.276 46.5293L180.412 40.7933C180.38 40.7293 180.364 40.6733 180.364 40.6253C180.364 40.4973 180.444 40.4333 180.604 40.4333H183.604C183.748 40.4333 183.86 40.4973 183.94 40.6253L186.1 43.9133C186.164 44.0093 186.22 44.0093 186.268 43.9133L188.428 40.6253C188.508 40.4973 188.62 40.4333 188.764 40.4333H191.98C192.092 40.4333 192.164 40.4733 192.196 40.5533C192.228 40.6173 192.212 40.6973 192.148 40.7933L188.308 46.5293C188.292 46.5773 188.292 46.6253 188.308 46.6733L192.148 52.4093C192.18 52.4573 192.196 52.5133 192.196 52.5773C192.196 52.7053 192.124 52.7693 191.98 52.7693H188.956C188.812 52.7693 188.7 52.7053 188.62 52.5773L186.46 49.2893C186.412 49.1933 186.364 49.1933 186.316 49.2893L184.156 52.5773C184.076 52.7053 183.964 52.7693 183.82 52.7693H180.604Z" fill="#13D7FF"/>
<path d="M65.3542 28.1044C65.0209 28.2722 65.0209 28.4399 65.3542 28.6077C70.6309 31.3483 73.2693 35.9065 73.2693 42.2824C73.2693 47.7076 71.4363 51.8183 67.7704 54.6148C64.1044 57.3553 59.2998 58.7255 53.3566 58.7255H39.7045C39.7045 59.3248 39.6446 57.5241 39.7045 56.9278C40.9616 44.4231 28.9923 48.4905 30.7777 48.4905V1.00672C30.7777 0.727118 30.861 0.503363 31.0276 0.335575C31.2498 0.111819 31.4998 0 31.7775 0H52.69C65.8541 0 72.4361 5.36919 72.4361 16.1076C72.4361 21.7005 70.0755 25.6994 65.3542 28.1044ZM42.942 10.1511C42.6643 10.1511 42.5254 10.291 42.5254 10.5706V23.658C42.5254 23.9376 42.6643 24.0775 42.942 24.0775H52.69C55.3006 24.0775 57.328 23.4623 58.7722 22.2318C60.2163 21.0013 60.9384 19.3235 60.9384 17.1982C60.9384 15.017 60.2163 13.3112 58.7722 12.0807C57.328 10.7944 55.3006 10.1511 52.69 10.1511H42.942ZM53.3566 48.4905C55.9117 48.4905 57.9113 47.8473 59.3554 46.561C60.7995 45.2187 61.5216 43.4009 61.5216 41.1079C61.5216 38.8148 60.7995 37.025 59.3554 35.7387C57.9113 34.3964 55.8838 33.7252 53.2732 33.7252H42.942C42.6643 33.7252 42.5254 33.8651 42.5254 34.1447V48.0711C42.5254 48.3507 42.6643 48.4905 42.942 48.4905H53.3566Z" fill="#13D7FF"/>
<rect x="37.5" y="9.23071" width="26.5385" height="40.3846" fill="#13D7FF"/>
<path d="M29.3639 0H42.8762V39.9493H18.7891L29.3639 0Z" fill="#13D7FF"/>
<path d="M40.3846 58.8461C39.7815 58.8461 39.2173 57.2999 39.0528 56.7516L36.9143 49.4314C36.8047 49.2121 36.6676 49.1025 36.5031 49.1025H17.7504C17.5859 49.1025 17.4489 49.2121 17.3392 49.4314L15.2007 56.7516C15.0362 57.2999 14.4494 58.8461 13.8462 58.8461H1.73077C1.40177 58.8461 0.576923 58.8461 0 58.8461C0 58.8461 0.53306 56.8064 0.642721 56.4226L18.2439 0.822487C18.4084 0.274124 18.7649 0 19.3131 0H34.8581C35.4065 0 35.7629 0.274124 35.9274 0.822487L53.6108 56.4226C53.6657 56.5322 54.3953 58.8461 54.2308 58.8461C51.9231 58.8461 53.6802 58.8461 53.0769 58.8461H40.3846ZM20.6291 38.0811C20.5743 38.4101 20.684 38.5746 20.9581 38.5746H33.2131C33.5421 38.5746 33.6519 38.4101 33.5421 38.0811L27.2912 16.9432C27.2365 16.7239 27.1542 16.6416 27.0445 16.6965C26.9349 16.6965 26.8526 16.7787 26.7978 16.9432L20.6291 38.0811Z" fill="#176C7C"/>
<path d="M49.3487 32.3677C49.2167 32.265 49.07 32.133 48.9087 31.9717C48.762 31.8103 48.7107 31.583 48.7547 31.2897C48.7987 30.879 48.8574 30.5197 48.9307 30.2117C49.004 29.889 49.092 29.5223 49.1947 29.1117C49.224 28.9357 49.2974 28.635 49.4147 28.2097C49.5467 27.7843 49.7007 27.3223 49.8767 26.8237C50.0527 26.325 50.236 25.8557 50.4267 25.4157C50.6174 24.961 50.786 24.6237 50.9327 24.4037C51.094 24.257 51.3287 24.1837 51.6367 24.1837C51.9594 24.1837 52.1794 24.2423 52.2967 24.3597C52.458 24.4917 52.5094 24.7263 52.4507 25.0637C52.392 25.3863 52.1867 25.8923 51.8347 26.5817C51.7614 26.7577 51.666 26.9483 51.5487 27.1537C51.446 27.3443 51.3727 27.5057 51.3287 27.6377C51.2847 27.755 51.2994 27.8063 51.3727 27.7917C51.4607 27.6303 51.622 27.447 51.8567 27.2417C52.0914 27.0217 52.3407 26.809 52.6047 26.6037C52.8687 26.3983 53.118 26.215 53.3527 26.0537C53.5874 25.8923 53.7487 25.7897 53.8367 25.7457C53.954 25.6723 54.086 25.6137 54.2327 25.5697C54.394 25.511 54.504 25.467 54.5627 25.4377C54.9 25.2763 55.2667 25.2177 55.6627 25.2617C56.0734 25.291 56.3227 25.4157 56.4107 25.6357C56.4254 25.753 56.4694 25.841 56.5427 25.8997C56.6307 25.9583 56.6747 25.9877 56.6747 25.9877C56.7334 25.9877 56.7627 26.0097 56.7627 26.0537C56.7774 26.0977 56.7847 26.1197 56.7847 26.1197C56.7847 26.2223 56.682 26.369 56.4767 26.5597C56.286 26.7503 56.0734 26.853 55.8387 26.8677C55.648 26.8823 55.4794 26.919 55.3327 26.9777C55.186 27.0363 55.01 27.1097 54.8047 27.1977C54.2474 27.5203 53.7414 27.8063 53.2867 28.0557C52.8467 28.305 52.392 28.6863 51.9227 29.1997C51.82 29.317 51.71 29.427 51.5927 29.5297C51.4754 29.6323 51.358 29.779 51.2407 29.9697C51.1674 30.043 51.094 30.2043 51.0207 30.4537C50.9474 30.703 50.8814 30.945 50.8227 31.1797C50.7787 31.3997 50.7567 31.5317 50.7567 31.5757C50.7567 31.5757 50.7347 31.649 50.6907 31.7957C50.6467 31.9277 50.5734 32.0597 50.4707 32.1917C50.2947 32.4263 50.1187 32.573 49.9427 32.6317C49.7814 32.6903 49.5834 32.6023 49.3487 32.3677ZM59.6744 32.1477C59.6304 32.089 59.5351 32.0157 59.3884 31.9277C59.2418 31.8397 59.1684 31.7663 59.1684 31.7077C59.1684 31.6783 59.1611 31.6417 59.1464 31.5977C59.1464 31.5537 59.1171 31.5317 59.0584 31.5317C59.0144 31.4877 59.0364 31.3263 59.1244 31.0477C59.2271 30.769 59.3591 30.439 59.5204 30.0577C59.6964 29.6763 59.8798 29.3097 60.0704 28.9577C60.2611 28.591 60.4224 28.2977 60.5544 28.0777C60.6278 28.0337 60.6718 27.975 60.6864 27.9017C60.7158 27.8137 60.7158 27.7697 60.6864 27.7697C60.6864 27.7697 60.7231 27.7037 60.7964 27.5717C60.8844 27.425 60.9504 27.3297 60.9944 27.2857C61.1118 27.0803 61.1998 26.875 61.2584 26.6697C61.3171 26.4497 61.3318 26.2663 61.3024 26.1197C61.2438 26.0463 61.1778 26.0243 61.1044 26.0537C61.0311 26.083 60.9944 26.0977 60.9944 26.0977C60.9358 26.1123 60.8478 26.1417 60.7304 26.1857C60.6278 26.215 60.5324 26.259 60.4444 26.3177C60.1071 26.5523 59.8578 26.6697 59.6964 26.6697C59.5498 26.6697 59.4031 26.4937 59.2564 26.1417C59.1978 25.9803 59.1758 25.8263 59.1904 25.6797C59.2051 25.533 59.2638 25.4157 59.3664 25.3277C59.4838 25.225 59.6304 25.1223 59.8064 25.0197C59.9824 24.9023 60.0998 24.8217 60.1584 24.7777C60.3198 24.675 60.5471 24.565 60.8404 24.4477C61.1338 24.3303 61.3098 24.2643 61.3684 24.2497C61.7498 24.1323 62.0724 24.1323 62.3364 24.2497C62.6004 24.3523 62.7984 24.5577 62.9304 24.8657C63.1358 25.115 63.2384 25.379 63.2384 25.6577C63.2384 25.9363 63.1358 26.281 62.9304 26.6917L62.7104 27.0217C62.6371 27.1683 62.6224 27.2417 62.6664 27.2417C62.7251 27.2417 62.7911 27.1903 62.8644 27.0877C62.9084 27.029 62.9964 26.941 63.1284 26.8237C63.2604 26.7063 63.3484 26.6477 63.3924 26.6477C63.3924 26.6477 63.4071 26.6403 63.4364 26.6257C63.4804 26.611 63.5024 26.5523 63.5024 26.4497C63.5464 26.4057 63.5904 26.3617 63.6344 26.3177C63.6931 26.2737 63.7224 26.2517 63.7224 26.2517C63.7811 26.2517 63.8544 26.2223 63.9424 26.1637C64.0451 26.0903 64.2138 25.9583 64.4484 25.7677C64.6098 25.6503 64.7564 25.5917 64.8884 25.5917C65.2258 25.489 65.4971 25.599 65.7024 25.9217C65.9224 26.2443 66.0324 26.6623 66.0324 27.1757L65.5704 28.3637L66.3624 27.3957C66.4504 27.2783 66.5384 27.1757 66.6264 27.0877C66.7291 26.9997 66.8171 26.9263 66.8904 26.8677C66.9198 26.765 66.9638 26.7063 67.0224 26.6917C67.0811 26.677 67.1104 26.6697 67.1104 26.6697C67.1104 26.6697 67.1251 26.6697 67.1544 26.6697C67.1838 26.655 67.1984 26.6257 67.1984 26.5817C67.2718 26.523 67.3524 26.4717 67.4404 26.4277C67.5284 26.369 67.5871 26.3103 67.6164 26.2517C67.8658 26.149 68.1664 26.1343 68.5184 26.2077C68.8704 26.2663 69.1198 26.4497 69.2664 26.7577C69.3691 26.9337 69.4644 27.0877 69.5524 27.2197C69.6404 27.3517 69.6844 27.5497 69.6844 27.8137C69.6551 28.0337 69.6258 28.1877 69.5964 28.2757C69.5818 28.3637 69.5671 28.459 69.5524 28.5617C69.5378 28.6497 69.5158 28.811 69.4864 29.0457C69.4278 29.163 69.3911 29.2877 69.3764 29.4197C69.3764 29.5517 69.3764 29.6763 69.3764 29.7937C69.3764 29.9843 69.3838 30.1163 69.3984 30.1897C69.4131 30.2483 69.4718 30.2777 69.5744 30.2777C69.7798 30.2337 69.9484 30.1677 70.0804 30.0797C70.2271 29.977 70.3884 29.845 70.5644 29.6837C70.7844 29.4783 70.9751 29.449 71.1364 29.5957C71.3124 29.7277 71.4224 29.8817 71.4664 30.0577C71.4958 30.1163 71.4664 30.2483 71.3784 30.4537C71.2904 30.659 71.1878 30.857 71.0704 31.0477C70.9531 31.2383 70.8578 31.3337 70.7844 31.3337C70.7404 31.3337 70.6524 31.3923 70.5204 31.5097C70.3884 31.627 70.2858 31.7077 70.2124 31.7517C70.1098 31.8543 70.0071 31.9497 69.9044 32.0377C69.8164 32.1257 69.7138 32.1697 69.5964 32.1697C69.5378 32.1697 69.4644 32.1917 69.3764 32.2357C69.3031 32.265 69.2151 32.2797 69.1124 32.2797C68.9658 32.3237 68.7384 32.3017 68.4304 32.2137C68.1371 32.1257 67.9464 31.9203 67.8584 31.5977C67.7998 31.4363 67.7118 31.231 67.5944 30.9817C67.4918 30.7323 67.4698 30.4243 67.5284 30.0577C67.5871 29.7937 67.6238 29.5517 67.6384 29.3317C67.6531 29.1117 67.6824 28.9577 67.7264 28.8697C67.7264 28.8257 67.7264 28.723 67.7264 28.5617C67.7264 28.3857 67.7044 28.2977 67.6604 28.2977C67.6018 28.2977 67.4918 28.371 67.3304 28.5177C67.1691 28.6643 66.9784 28.8623 66.7584 29.1117C66.5384 29.3463 66.3111 29.603 66.0764 29.8817C65.8564 30.1603 65.6584 30.439 65.4824 30.7177C65.3504 30.879 65.2331 31.077 65.1304 31.3117C65.0278 31.5463 64.9544 31.6783 64.9104 31.7077C64.8078 31.825 64.6318 31.8397 64.3824 31.7517C64.1478 31.6637 63.9718 31.5243 63.8544 31.3337C63.8104 31.2457 63.7591 31.1943 63.7004 31.1797C63.6418 31.1503 63.5904 31.1063 63.5464 31.0477C63.5171 30.9743 63.5171 30.835 63.5464 30.6297C63.5904 30.4243 63.6858 30.0943 63.8324 29.6397C63.9938 29.141 64.1331 28.6937 64.2504 28.2977C64.3824 27.887 64.4484 27.6817 64.4484 27.6817C64.4484 27.623 64.3384 27.6817 64.1184 27.8577C63.8984 28.019 63.6418 28.2243 63.3484 28.4737C63.2164 28.635 63.0404 28.8403 62.8204 29.0897C62.6151 29.339 62.3731 29.6323 62.0944 29.9697C61.8304 30.307 61.5298 30.703 61.1924 31.1577C60.7671 31.759 60.4444 32.1257 60.2244 32.2577C60.0191 32.3897 59.8358 32.353 59.6744 32.1477ZM78.9752 32.5217C78.5352 32.771 78.0658 32.9177 77.5672 32.9617C77.0832 32.991 76.6285 32.925 76.2032 32.7637C75.7778 32.5877 75.4332 32.331 75.1692 31.9937C75.0225 31.803 74.8832 31.5023 74.7512 31.0917C74.6192 30.6663 74.5972 30.0943 74.6852 29.3757C74.7732 28.701 74.9785 28.019 75.3012 27.3297C75.6385 26.6403 76.0492 26.0317 76.5332 25.5037C77.0172 24.9757 77.5452 24.6163 78.1172 24.4257C78.3225 24.3523 78.5278 24.301 78.7332 24.2717C78.9532 24.2277 79.2392 24.2203 79.5912 24.2497C79.9285 24.2937 80.2292 24.3817 80.4932 24.5137C80.7572 24.631 80.9478 24.763 81.0652 24.9097C81.2998 25.1443 81.4538 25.3717 81.5272 25.5917C81.6005 25.8117 81.6298 26.0243 81.6152 26.2297C81.5418 26.699 81.3292 27.205 80.9772 27.7477C80.6398 28.2903 80.1632 28.6937 79.5472 28.9577C79.2978 29.0603 79.0045 29.1263 78.6672 29.1557C78.3298 29.185 77.8678 29.141 77.2812 29.0237C76.9292 28.9503 76.6945 28.987 76.5772 29.1337C76.4745 29.2803 76.4305 29.5663 76.4452 29.9917C76.4745 30.2557 76.5332 30.4903 76.6212 30.6957C76.7238 30.8863 76.9072 31.0183 77.1712 31.0917C77.5085 31.1503 77.7505 31.1577 77.8972 31.1137C78.0438 31.055 78.2272 30.9743 78.4472 30.8717C78.5645 30.7983 78.6745 30.7177 78.7772 30.6297C78.8945 30.5417 79.0045 30.4537 79.1072 30.3657C79.2245 30.2777 79.3198 30.2117 79.3932 30.1677C79.4665 30.109 79.5398 30.0723 79.6132 30.0577C79.6865 30.043 79.7598 30.0357 79.8332 30.0357C79.9945 30.0503 80.1485 30.1383 80.2952 30.2997C80.4418 30.461 80.5372 30.615 80.5812 30.7617C80.5812 30.879 80.5078 31.0477 80.3612 31.2677C80.2145 31.473 80.0165 31.693 79.7672 31.9277C79.5325 32.1477 79.2685 32.3457 78.9752 32.5217ZM78.6892 27.6157C78.7918 27.5717 78.9385 27.469 79.1292 27.3077C79.3345 27.1463 79.5178 26.9777 79.6792 26.8017C79.8405 26.611 79.9212 26.4643 79.9212 26.3617C79.9212 26.2003 79.8112 26.061 79.5912 25.9437C79.3858 25.8263 79.1145 25.8043 78.7772 25.8777C78.6598 25.907 78.5205 25.9877 78.3592 26.1197C78.1978 26.2517 78.0365 26.4057 77.8752 26.5817C77.7138 26.743 77.5745 26.9043 77.4572 27.0657C77.3398 27.2123 77.2592 27.3297 77.2152 27.4177C77.2738 27.491 77.3912 27.5497 77.5672 27.5937C77.7432 27.6377 77.9338 27.6597 78.1392 27.6597C78.3592 27.6597 78.5425 27.645 78.6892 27.6157ZM84.4308 33.6217C84.2401 33.5483 84.0861 33.431 83.9688 33.2697C83.8515 33.123 83.7855 32.903 83.7708 32.6097C83.7561 32.419 83.7635 32.1403 83.7928 31.7737C83.8221 31.3923 83.8735 31.011 83.9468 30.6297C83.9468 30.6003 83.9468 30.571 83.9468 30.5417C83.9615 30.4977 83.9688 30.4683 83.9688 30.4537C83.9835 30.395 83.9981 30.307 84.0128 30.1897C84.0275 30.0577 84.0421 29.955 84.0568 29.8817C84.0861 29.7937 84.1008 29.7863 84.1008 29.8597L84.2328 29.2657C84.2915 29.0017 84.3575 28.7303 84.4308 28.4517C84.5041 28.173 84.5701 27.931 84.6288 27.7257C84.7021 27.5057 84.7461 27.381 84.7608 27.3517C84.7608 27.3517 84.7828 27.271 84.8268 27.1097C84.8855 26.9337 84.9441 26.7577 85.0028 26.5817C85.2375 25.8483 85.4575 25.2397 85.6628 24.7557C85.8828 24.2717 86.0735 23.9197 86.2348 23.6997C86.2495 23.6557 86.2715 23.6043 86.3008 23.5457C86.3301 23.4723 86.3521 23.4137 86.3668 23.3697C86.3668 23.2083 86.3741 23.091 86.3888 23.0177C86.4181 22.9443 86.4548 22.8783 86.4988 22.8197C86.5281 22.761 86.5721 22.6877 86.6308 22.5997C86.6895 22.497 86.7555 22.3723 86.8288 22.2257L86.9168 21.9837C87.0048 21.793 87.1148 21.573 87.2468 21.3237C87.3788 21.0597 87.4741 20.8617 87.5328 20.7297C87.5768 20.5977 87.6648 20.4437 87.7968 20.2677C87.9288 20.077 88.0755 19.9523 88.2368 19.8937L88.2148 19.8717C88.2881 19.7397 88.4275 19.637 88.6328 19.5637C88.8381 19.4757 89.0068 19.4317 89.1388 19.4317C89.3441 19.4317 89.4981 19.4903 89.6008 19.6077C89.7181 19.725 89.7768 19.8863 89.7768 20.0917C89.7768 20.3117 89.7695 20.473 89.7548 20.5757C89.7548 20.6637 89.7035 20.7663 89.6008 20.8837H89.6228C89.6521 20.8543 89.6448 20.8983 89.6008 21.0157C89.5568 21.133 89.5201 21.2137 89.4908 21.2577C89.4615 21.331 89.4248 21.4117 89.3808 21.4997C89.3515 21.5877 89.3148 21.6537 89.2708 21.6977C89.2268 21.7563 89.1095 21.9617 88.9188 22.3137C88.7281 22.651 88.5155 23.0543 88.2808 23.5237C88.0461 23.9783 87.8188 24.4257 87.5988 24.8657C87.3935 25.291 87.2468 25.621 87.1588 25.8557L87.0488 26.1857C87.0341 26.2443 87.0268 26.2883 87.0268 26.3177C86.9828 26.4203 86.9388 26.523 86.8948 26.6257C86.8508 26.7283 86.8068 26.8163 86.7628 26.8897L86.4108 28.2537L86.3228 28.7157L86.1248 29.2217L85.9928 29.6397C85.9635 29.7277 85.9415 29.823 85.9268 29.9257C85.9121 30.0283 85.8828 30.1017 85.8388 30.1457C85.8388 30.1603 85.8315 30.1823 85.8168 30.2117C85.8168 30.2263 85.8168 30.241 85.8168 30.2557C85.7581 30.4903 85.6555 30.8203 85.5088 31.2457C85.3768 31.671 85.2961 32.1403 85.2668 32.6537C85.2668 32.6683 85.2595 32.683 85.2448 32.6977C85.2448 32.7123 85.2448 32.727 85.2448 32.7417C85.2008 33.0497 85.1055 33.2843 84.9588 33.4457C84.8268 33.6217 84.6508 33.6803 84.4308 33.6217ZM91.311 33.2037C91.0323 33.277 90.783 33.1963 90.563 32.9617C90.343 32.7417 90.189 32.4117 90.101 31.9717C90.013 31.5317 90.0276 31.0403 90.145 30.4977C90.2183 30.3217 90.277 30.153 90.321 29.9917C90.365 29.8157 90.387 29.6763 90.387 29.5737C90.4163 29.427 90.475 29.2143 90.563 28.9357C90.651 28.6423 90.7463 28.3417 90.849 28.0337C90.9516 27.7257 91.047 27.4543 91.135 27.2197C91.2376 26.9703 91.3036 26.8163 91.333 26.7577C91.3916 26.7577 91.443 26.7063 91.487 26.6037C91.531 26.501 91.553 26.3983 91.553 26.2957C91.553 26.1783 91.575 26.0463 91.619 25.8997C91.6776 25.753 91.7363 25.6503 91.795 25.5917C91.795 25.5183 91.8096 25.4377 91.839 25.3497C91.883 25.247 91.905 25.1663 91.905 25.1077C91.905 25.049 91.9196 24.9903 91.949 24.9317C91.993 24.873 92.015 24.8143 92.015 24.7557C92.1176 24.565 92.2496 24.2643 92.411 23.8537C92.587 23.4283 92.7703 22.959 92.961 22.4457C93.1663 21.9323 93.357 21.4263 93.533 20.9277C93.709 20.429 93.8483 20.011 93.951 19.6737C94.0683 19.3217 94.127 19.109 94.127 19.0357C94.127 18.9183 94.171 18.8083 94.259 18.7057C94.347 18.603 94.4496 18.5517 94.567 18.5517C94.611 18.5077 94.7136 18.4783 94.875 18.4637C95.0363 18.4343 95.1463 18.4197 95.205 18.4197C95.205 18.4197 95.2343 18.449 95.293 18.5077C95.3516 18.5663 95.4396 18.6543 95.557 18.7717C95.6743 18.8743 95.7843 18.9917 95.887 19.1237C96.0043 19.2557 96.063 19.4097 96.063 19.5857C96.063 19.7763 96.0336 19.9597 95.975 20.1357C95.931 20.3117 95.843 20.5537 95.711 20.8617C95.579 21.155 95.3736 21.595 95.095 22.1817C94.9776 22.475 94.853 22.7537 94.721 23.0177C94.589 23.267 94.523 23.421 94.523 23.4797C94.523 23.5383 94.4936 23.6263 94.435 23.7437C94.391 23.861 94.3396 24.0077 94.281 24.1837C94.2223 24.301 94.1416 24.477 94.039 24.7117C93.9363 24.9317 93.8263 25.1737 93.709 25.4377C93.6063 25.687 93.5183 25.907 93.445 26.0977C93.3716 26.2737 93.335 26.3763 93.335 26.4057C93.335 26.4643 93.3276 26.523 93.313 26.5817C93.313 26.6403 93.2836 26.699 93.225 26.7577C93.1663 26.7577 93.1296 26.8017 93.115 26.8897C93.115 26.963 93.115 26.9997 93.115 26.9997C93.115 27.1463 92.9976 27.535 92.763 28.1657C92.5283 28.9723 92.3083 29.713 92.103 30.3877C91.9123 31.0623 91.817 31.605 91.817 32.0157C91.817 32.3677 91.7583 32.639 91.641 32.8297C91.5383 33.0203 91.4283 33.145 91.311 33.2037ZM98.7191 33.3577C97.9125 33.3577 97.2891 33.123 96.8491 32.6537C96.4238 32.1843 96.2111 31.4657 96.2111 30.4977C96.2111 29.9697 96.3065 29.3903 96.4971 28.7597C96.7025 28.129 96.9665 27.513 97.2891 26.9117C97.6265 26.3103 97.9931 25.7897 98.3891 25.3497C98.7851 24.895 99.1811 24.5797 99.5771 24.4037C99.7238 24.3303 99.8778 24.279 100.039 24.2497C100.215 24.2057 100.384 24.1837 100.545 24.1837C100.721 24.1837 100.912 24.1983 101.117 24.2277C101.337 24.2423 101.542 24.2863 101.733 24.3597C102.07 24.4623 102.364 24.6603 102.613 24.9537C102.877 25.247 103.009 25.6723 103.009 26.2297C103.009 26.3763 102.994 26.5377 102.965 26.7137C102.936 26.875 102.884 27.0363 102.811 27.1977C102.62 27.6817 102.327 28.1437 101.931 28.5837C101.55 29.0237 101.146 29.3317 100.721 29.5077C100.604 29.5663 100.486 29.6103 100.369 29.6397C100.266 29.6543 100.156 29.6617 100.039 29.6617C99.7311 29.6617 99.4525 29.6177 99.2031 29.5297C98.9685 29.4417 98.7485 29.3243 98.5431 29.1777L98.3671 29.0237L98.2571 29.2437C98.1545 29.5223 98.0811 29.757 98.0371 29.9477C98.0078 30.1383 97.9931 30.2777 97.9931 30.3657C97.9931 30.5417 98.0005 30.725 98.0151 30.9157C98.0298 31.0917 98.0738 31.2383 98.1471 31.3557C98.2058 31.429 98.2791 31.4877 98.3671 31.5317C98.4698 31.5757 98.5945 31.5977 98.7411 31.5977C98.8291 31.5977 98.9098 31.5977 98.9831 31.5977C99.0711 31.583 99.1445 31.5683 99.2031 31.5537C99.4671 31.495 99.6798 31.3997 99.8411 31.2677C100.017 31.121 100.2 30.9963 100.391 30.8937L100.479 30.8497L100.457 30.7837C100.706 30.6517 100.875 30.571 100.963 30.5417C101.051 30.4977 101.117 30.461 101.161 30.4317C101.22 30.373 101.286 30.3437 101.359 30.3437C101.564 30.3143 101.762 30.373 101.953 30.5197C102.158 30.6517 102.261 30.8203 102.261 31.0257C102.261 31.1137 102.195 31.253 102.063 31.4437C101.946 31.6343 101.792 31.825 101.601 32.0157C101.425 32.1917 101.242 32.331 101.051 32.4337C101.007 32.4483 100.963 32.4703 100.919 32.4997C100.875 32.5143 100.831 32.5363 100.787 32.5657H100.809C100.677 32.7417 100.545 32.8297 100.413 32.8297H100.237C100.178 32.9323 99.9878 33.0423 99.6651 33.1597C99.3425 33.2917 99.0271 33.3577 98.7191 33.3577ZM99.8631 28.0557C99.9951 28.0557 100.112 28.0337 100.215 27.9897C100.332 27.9457 100.442 27.8943 100.545 27.8357C100.897 27.5863 101.124 27.2637 101.227 26.8677C101.33 26.4717 101.293 26.171 101.117 25.9657C101.088 25.9217 101.051 25.8923 101.007 25.8777C100.963 25.8483 100.912 25.8337 100.853 25.8337C100.692 25.8337 100.508 25.885 100.303 25.9877C100.112 26.0903 99.9218 26.237 99.7311 26.4277C99.5405 26.6183 99.3645 26.8457 99.2031 27.1097L98.9171 27.5717C98.9465 27.557 98.9685 27.5497 98.9831 27.5497C99.0125 27.535 99.0345 27.5277 99.0491 27.5277C99.1811 27.5277 99.2691 27.5717 99.3131 27.6597C99.3571 27.7477 99.4085 27.8357 99.4671 27.9237C99.5405 28.0117 99.6725 28.0557 99.8631 28.0557Z" fill="#176C7C"/>
</svg>
