<svg width="202" height="60" viewBox="0 0 202 60" fill="none" xmlns="http://www.w3.org/2000/svg">
<path d="M91.5652 40.2652C92.1412 40.2652 92.5972 40.3772 92.9332 40.6012C93.0612 40.6652 93.1092 40.7852 93.0772 40.9612L92.5732 43.6972C92.5572 43.8892 92.4452 43.9452 92.2372 43.8652C91.9972 43.7852 91.7172 43.7452 91.3972 43.7452C91.2692 43.7452 91.0932 43.7612 90.8692 43.7932C90.2932 43.8412 89.8052 44.0572 89.4052 44.4412C89.0052 44.8092 88.8052 45.3052 88.8052 45.9292V52.4812C88.8052 52.5612 88.7732 52.6332 88.7092 52.6972C88.6612 52.7452 88.5972 52.7692 88.5172 52.7692H85.7092C85.6292 52.7692 85.5572 52.7452 85.4932 52.6972C85.4452 52.6332 85.4212 52.5612 85.4212 52.4812V40.7212C85.4212 40.6412 85.4452 40.5772 85.4932 40.5292C85.5572 40.4652 85.6292 40.4332 85.7092 40.4332H88.5172C88.5972 40.4332 88.6612 40.4652 88.7092 40.5292C88.7732 40.5772 88.8052 40.6412 88.8052 40.7212V41.6332C88.8052 41.6812 88.8212 41.7132 88.8532 41.7292C88.8852 41.7452 88.9092 41.7372 88.9252 41.7052C89.5812 40.7452 90.4612 40.2652 91.5652 40.2652ZM105.409 40.7212C105.409 40.6412 105.433 40.5772 105.481 40.5292C105.545 40.4652 105.617 40.4332 105.697 40.4332H108.505C108.585 40.4332 108.649 40.4652 108.697 40.5292C108.761 40.5772 108.793 40.6412 108.793 40.7212V52.4812C108.793 52.5612 108.761 52.6332 108.697 52.6972C108.649 52.7452 108.585 52.7692 108.505 52.7692H105.697C105.617 52.7692 105.545 52.7452 105.481 52.6972C105.433 52.6332 105.409 52.5612 105.409 52.4812V51.6652C105.409 51.6172 105.393 51.5932 105.361 51.5932C105.329 51.5772 105.297 51.5932 105.265 51.6412C104.625 52.5052 103.633 52.9372 102.289 52.9372C101.073 52.9372 100.073 52.5692 99.2887 51.8332C98.5047 51.0972 98.1127 50.0652 98.1127 48.7372V40.7212C98.1127 40.6412 98.1367 40.5772 98.1847 40.5292C98.2487 40.4652 98.3207 40.4332 98.4007 40.4332H101.185C101.265 40.4332 101.329 40.4652 101.377 40.5292C101.441 40.5772 101.473 40.6412 101.473 40.7212V47.8972C101.473 48.5372 101.641 49.0572 101.977 49.4572C102.329 49.8572 102.809 50.0572 103.417 50.0572C103.961 50.0572 104.409 49.8972 104.761 49.5772C105.113 49.2412 105.329 48.8092 105.409 48.2812V40.7212ZM121.319 40.2412C122.599 40.2412 123.631 40.6332 124.415 41.4172C125.199 42.2012 125.591 43.2652 125.591 44.6092V52.4812C125.591 52.5612 125.559 52.6332 125.495 52.6972C125.447 52.7452 125.383 52.7692 125.303 52.7692H122.495C122.415 52.7692 122.343 52.7452 122.279 52.6972C122.231 52.6332 122.207 52.5612 122.207 52.4812V45.3052C122.207 44.6652 122.023 44.1452 121.655 43.7452C121.303 43.3452 120.831 43.1452 120.239 43.1452C119.647 43.1452 119.167 43.3452 118.799 43.7452C118.447 44.1452 118.271 44.6652 118.271 45.3052V52.4812C118.271 52.5612 118.239 52.6332 118.175 52.6972C118.127 52.7452 118.063 52.7692 117.983 52.7692H115.175C115.095 52.7692 115.023 52.7452 114.959 52.6972C114.911 52.6332 114.887 52.5612 114.887 52.4812V40.7212C114.887 40.6412 114.911 40.5772 114.959 40.5292C115.023 40.4652 115.095 40.4332 115.175 40.4332H117.983C118.063 40.4332 118.127 40.4652 118.175 40.5292C118.239 40.5772 118.271 40.6412 118.271 40.7212V41.5612C118.271 41.6092 118.287 41.6412 118.319 41.6572C118.351 41.6732 118.375 41.6652 118.391 41.6332C119.047 40.7052 120.023 40.2412 121.319 40.2412ZM142.462 45.3292C142.558 45.9372 142.59 46.6172 142.558 47.3692C142.542 47.5612 142.438 47.6572 142.246 47.6572H134.83C134.734 47.6572 134.702 47.6972 134.734 47.7772C134.782 48.0972 134.87 48.4172 134.998 48.7372C135.414 49.6332 136.262 50.0812 137.542 50.0812C138.566 50.0652 139.374 49.6492 139.966 48.8332C140.03 48.7372 140.102 48.6892 140.182 48.6892C140.23 48.6892 140.286 48.7212 140.35 48.7852L142.078 50.4892C142.158 50.5692 142.198 50.6412 142.198 50.7052C142.198 50.7372 142.166 50.8012 142.102 50.8972C141.574 51.5532 140.894 52.0652 140.062 52.4332C139.23 52.7852 138.318 52.9612 137.326 52.9612C135.95 52.9612 134.782 52.6492 133.822 52.0252C132.878 51.4012 132.198 50.5292 131.782 49.4092C131.446 48.6092 131.278 47.5612 131.278 46.2652C131.278 45.3852 131.398 44.6092 131.638 43.9372C132.006 42.8012 132.646 41.8972 133.558 41.2252C134.486 40.5532 135.582 40.2172 136.846 40.2172C138.446 40.2172 139.726 40.6812 140.686 41.6092C141.662 42.5372 142.254 43.7772 142.462 45.3292ZM136.87 43.1452C135.862 43.1452 135.198 43.6172 134.878 44.5612C134.814 44.7692 134.758 45.0252 134.71 45.3292C134.71 45.4092 134.75 45.4492 134.83 45.4492H138.982C139.078 45.4492 139.11 45.4092 139.078 45.3292C138.998 44.8652 138.958 44.6412 138.958 44.6572C138.814 44.1772 138.558 43.8092 138.19 43.5532C137.838 43.2812 137.398 43.1452 136.87 43.1452ZM153.046 40.2412C154.086 40.2412 155.014 40.4252 155.83 40.7932C156.646 41.1452 157.278 41.6332 157.726 42.2572C158.19 42.8812 158.422 43.5772 158.422 44.3452V52.4812C158.422 52.5612 158.39 52.6332 158.326 52.6972C158.278 52.7452 158.214 52.7692 158.134 52.7692H155.326C155.246 52.7692 155.174 52.7452 155.11 52.6972C155.062 52.6332 155.038 52.5612 155.038 52.4812V51.6892C155.038 51.6412 155.022 51.6092 154.99 51.5932C154.958 51.5772 154.926 51.5932 154.894 51.6412C154.222 52.5212 153.142 52.9612 151.654 52.9612C150.406 52.9612 149.398 52.6572 148.63 52.0492C147.862 51.4412 147.478 50.5452 147.478 49.3612C147.478 48.1292 147.91 47.1772 148.774 46.5052C149.638 45.8172 150.87 45.4732 152.47 45.4732H154.918C154.998 45.4732 155.038 45.4332 155.038 45.3532V44.8252C155.038 44.2972 154.878 43.8892 154.558 43.6012C154.238 43.2972 153.758 43.1452 153.118 43.1452C152.622 43.1452 152.206 43.2332 151.87 43.4092C151.55 43.5852 151.342 43.8332 151.246 44.1532C151.198 44.3292 151.094 44.4092 150.934 44.3932L148.03 44.0092C147.838 43.9772 147.75 43.9052 147.766 43.7932C147.83 43.1212 148.094 42.5132 148.558 41.9692C149.038 41.4252 149.662 41.0012 150.43 40.6972C151.214 40.3932 152.086 40.2412 153.046 40.2412ZM152.566 50.4412C153.254 50.4412 153.838 50.2572 154.318 49.8892C154.798 49.5212 155.038 49.0492 155.038 48.4732V47.6092C155.038 47.5292 154.998 47.4892 154.918 47.4892H153.19C152.47 47.4892 151.902 47.6252 151.486 47.8972C151.086 48.1692 150.886 48.5532 150.886 49.0492C150.886 49.4812 151.038 49.8252 151.342 50.0812C151.646 50.3212 152.054 50.4412 152.566 50.4412ZM171.606 40.7212C171.606 40.6412 171.63 40.5772 171.678 40.5292C171.742 40.4652 171.814 40.4332 171.894 40.4332H174.702C174.782 40.4332 174.846 40.4652 174.894 40.5292C174.958 40.5772 174.99 40.6412 174.99 40.7212V52.4812C174.99 52.5612 174.958 52.6332 174.894 52.6972C174.846 52.7452 174.782 52.7692 174.702 52.7692H171.894C171.814 52.7692 171.742 52.7452 171.678 52.6972C171.63 52.6332 171.606 52.5612 171.606 52.4812V51.6652C171.606 51.6172 171.59 51.5932 171.558 51.5932C171.526 51.5772 171.494 51.5932 171.462 51.6412C170.822 52.5052 169.83 52.9372 168.486 52.9372C167.27 52.9372 166.27 52.5692 165.486 51.8332C164.702 51.0972 164.31 50.0652 164.31 48.7372V40.7212C164.31 40.6412 164.334 40.5772 164.382 40.5292C164.446 40.4652 164.518 40.4332 164.598 40.4332H167.382C167.462 40.4332 167.526 40.4652 167.574 40.5292C167.638 40.5772 167.67 40.6412 167.67 40.7212V47.8972C167.67 48.5372 167.838 49.0572 168.174 49.4572C168.526 49.8572 169.006 50.0572 169.614 50.0572C170.158 50.0572 170.606 49.8972 170.958 49.5772C171.31 49.2412 171.526 48.8092 171.606 48.2812V40.7212ZM180.604 52.7692C180.492 52.7692 180.412 52.7372 180.364 52.6732C180.332 52.5932 180.348 52.5052 180.412 52.4092L184.276 46.6732C184.308 46.6252 184.308 46.5772 184.276 46.5292L180.412 40.7932C180.38 40.7292 180.364 40.6732 180.364 40.6252C180.364 40.4972 180.444 40.4332 180.604 40.4332H183.604C183.748 40.4332 183.86 40.4972 183.94 40.6252L186.1 43.9132C186.164 44.0092 186.22 44.0092 186.268 43.9132L188.428 40.6252C188.508 40.4972 188.62 40.4332 188.764 40.4332H191.98C192.092 40.4332 192.164 40.4732 192.196 40.5532C192.228 40.6172 192.212 40.6972 192.148 40.7932L188.308 46.5292C188.292 46.5772 188.292 46.6252 188.308 46.6732L192.148 52.4092C192.18 52.4572 192.196 52.5132 192.196 52.5772C192.196 52.7052 192.124 52.7692 191.98 52.7692H188.956C188.812 52.7692 188.7 52.7052 188.62 52.5772L186.46 49.2892C186.412 49.1932 186.364 49.1932 186.316 49.2892L184.156 52.5772C184.076 52.7052 183.964 52.7692 183.82 52.7692H180.604Z" fill="#D55816"/>
<path d="M65.3541 28.1044C65.0209 28.2722 65.0209 28.4399 65.3541 28.6077C70.6308 31.3483 73.2692 35.9065 73.2692 42.2824C73.2692 47.7076 71.4363 51.8183 67.7703 54.6148C64.1044 57.3553 59.2997 58.7255 53.3565 58.7255H39.7045C39.7045 59.3248 39.6445 57.5241 39.7045 56.9278C40.9615 44.4231 28.9923 48.4905 30.7777 48.4905V1.00672C30.7777 0.727118 30.861 0.503363 31.0276 0.335575C31.2498 0.111819 31.4997 0 31.7775 0H52.69C65.854 0 72.4361 5.36919 72.4361 16.1076C72.4361 21.7005 70.0755 25.6994 65.3541 28.1044ZM42.9419 10.1511C42.6642 10.1511 42.5253 10.291 42.5253 10.5706V23.658C42.5253 23.9376 42.6642 24.0775 42.9419 24.0775H52.69C55.3005 24.0775 57.328 23.4623 58.7721 22.2318C60.2162 21.0013 60.9384 19.3235 60.9384 17.1982C60.9384 15.017 60.2162 13.3112 58.7721 12.0807C57.328 10.7944 55.3005 10.1511 52.69 10.1511H42.9419ZM53.3565 48.4905C55.9116 48.4905 57.9112 47.8473 59.3553 46.561C60.7994 45.2187 61.5216 43.4009 61.5216 41.1079C61.5216 38.8148 60.7994 37.025 59.3553 35.7387C57.9112 34.3964 55.8838 33.7252 53.2732 33.7252H42.9419C42.6642 33.7252 42.5253 33.8651 42.5253 34.1447V48.0711C42.5253 48.3507 42.6642 48.4905 42.9419 48.4905H53.3565Z" fill="#D55816"/>
<rect x="37.5" y="9.23077" width="26.5385" height="40.3846" fill="#D55816"/>
<path d="M29.364 0H42.8762V39.9493H18.7891L29.364 0Z" fill="#D55816"/>
<path d="M40.3846 58.8461C39.7815 58.8461 39.2173 57.2999 39.0528 56.7516L36.9143 49.4314C36.8047 49.2121 36.6676 49.1025 36.5031 49.1025H17.7504C17.5859 49.1025 17.4489 49.2121 17.3392 49.4314L15.2007 56.7516C15.0362 57.2999 14.4494 58.8461 13.8462 58.8461H1.73077C1.40177 58.8461 0.576923 58.8461 0 58.8461C0 58.8461 0.53306 56.8064 0.642721 56.4226L18.2439 0.822487C18.4084 0.274124 18.7649 0 19.3131 0H34.8581C35.4065 0 35.7629 0.274124 35.9274 0.822487L53.6108 56.4226C53.6657 56.5322 54.3953 58.8461 54.2308 58.8461C51.9231 58.8461 53.6802 58.8461 53.0769 58.8461H40.3846ZM20.6291 38.0811C20.5743 38.4101 20.684 38.5746 20.9581 38.5746H33.2131C33.5421 38.5746 33.6519 38.4101 33.5421 38.0811L27.2912 16.9432C27.2365 16.7239 27.1542 16.6416 27.0445 16.6965C26.9349 16.6965 26.8526 16.7787 26.7978 16.9432L20.6291 38.0811Z" fill="#2F3B69"/>
<path d="M49.3488 32.3675C49.2168 32.2649 49.0701 32.1329 48.9088 31.9715C48.7621 31.8102 48.7108 31.5829 48.7548 31.2895C48.7988 30.8789 48.8574 30.5195 48.9308 30.2115C49.0041 29.8889 49.0921 29.5222 49.1948 29.1115C49.2241 28.9355 49.2974 28.6349 49.4148 28.2095C49.5468 27.7842 49.7008 27.3222 49.8768 26.8235C50.0528 26.3249 50.2361 25.8555 50.4268 25.4155C50.6174 24.9609 50.7861 24.6235 50.9328 24.4035C51.0941 24.2569 51.3288 24.1835 51.6368 24.1835C51.9594 24.1835 52.1794 24.2422 52.2968 24.3595C52.4581 24.4915 52.5094 24.7262 52.4508 25.0635C52.3921 25.3862 52.1868 25.8922 51.8348 26.5815C51.7614 26.7575 51.6661 26.9482 51.5488 27.1535C51.4461 27.3442 51.3728 27.5055 51.3288 27.6375C51.2848 27.7549 51.2994 27.8062 51.3728 27.7915C51.4608 27.6302 51.6221 27.4469 51.8568 27.2415C52.0914 27.0215 52.3408 26.8089 52.6048 26.6035C52.8688 26.3982 53.1181 26.2149 53.3528 26.0535C53.5874 25.8922 53.7488 25.7895 53.8368 25.7455C53.9541 25.6722 54.0861 25.6135 54.2328 25.5695C54.3941 25.5109 54.5041 25.4669 54.5628 25.4375C54.9001 25.2762 55.2668 25.2175 55.6628 25.2615C56.0734 25.2909 56.3228 25.4155 56.4108 25.6355C56.4254 25.7529 56.4694 25.8409 56.5428 25.8995C56.6308 25.9582 56.6748 25.9875 56.6748 25.9875C56.7334 25.9875 56.7628 26.0095 56.7628 26.0535C56.7774 26.0975 56.7848 26.1195 56.7848 26.1195C56.7848 26.2222 56.6821 26.3689 56.4768 26.5595C56.2861 26.7502 56.0734 26.8529 55.8388 26.8675C55.6481 26.8822 55.4794 26.9189 55.3328 26.9775C55.1861 27.0362 55.0101 27.1095 54.8048 27.1975C54.2474 27.5202 53.7414 27.8062 53.2868 28.0555C52.8468 28.3049 52.3921 28.6862 51.9228 29.1995C51.8201 29.3169 51.7101 29.4269 51.5928 29.5295C51.4754 29.6322 51.3581 29.7789 51.2408 29.9695C51.1674 30.0429 51.0941 30.2042 51.0208 30.4535C50.9474 30.7029 50.8814 30.9449 50.8228 31.1795C50.7788 31.3995 50.7568 31.5315 50.7568 31.5755C50.7568 31.5755 50.7348 31.6489 50.6908 31.7955C50.6468 31.9275 50.5734 32.0595 50.4708 32.1915C50.2948 32.4262 50.1188 32.5729 49.9428 32.6315C49.7814 32.6902 49.5834 32.6022 49.3488 32.3675ZM59.6745 32.1475C59.6305 32.0889 59.5352 32.0155 59.3885 31.9275C59.2418 31.8395 59.1685 31.7662 59.1685 31.7075C59.1685 31.6782 59.1612 31.6415 59.1465 31.5975C59.1465 31.5535 59.1172 31.5315 59.0585 31.5315C59.0145 31.4875 59.0365 31.3262 59.1245 31.0475C59.2272 30.7689 59.3592 30.4389 59.5205 30.0575C59.6965 29.6762 59.8798 29.3095 60.0705 28.9575C60.2612 28.5909 60.4225 28.2975 60.5545 28.0775C60.6278 28.0335 60.6718 27.9749 60.6865 27.9015C60.7158 27.8135 60.7158 27.7695 60.6865 27.7695C60.6865 27.7695 60.7232 27.7035 60.7965 27.5715C60.8845 27.4249 60.9505 27.3295 60.9945 27.2855C61.1118 27.0802 61.1998 26.8749 61.2585 26.6695C61.3172 26.4495 61.3318 26.2662 61.3025 26.1195C61.2438 26.0462 61.1778 26.0242 61.1045 26.0535C61.0312 26.0829 60.9945 26.0975 60.9945 26.0975C60.9358 26.1122 60.8478 26.1415 60.7305 26.1855C60.6278 26.2149 60.5325 26.2589 60.4445 26.3175C60.1072 26.5522 59.8578 26.6695 59.6965 26.6695C59.5498 26.6695 59.4032 26.4935 59.2565 26.1415C59.1978 25.9802 59.1758 25.8262 59.1905 25.6795C59.2052 25.5329 59.2638 25.4155 59.3665 25.3275C59.4838 25.2249 59.6305 25.1222 59.8065 25.0195C59.9825 24.9022 60.0998 24.8215 60.1585 24.7775C60.3198 24.6749 60.5472 24.5649 60.8405 24.4475C61.1338 24.3302 61.3098 24.2642 61.3685 24.2495C61.7498 24.1322 62.0725 24.1322 62.3365 24.2495C62.6005 24.3522 62.7985 24.5575 62.9305 24.8655C63.1358 25.1149 63.2385 25.3789 63.2385 25.6575C63.2385 25.9362 63.1358 26.2809 62.9305 26.6915L62.7105 27.0215C62.6372 27.1682 62.6225 27.2415 62.6665 27.2415C62.7252 27.2415 62.7912 27.1902 62.8645 27.0875C62.9085 27.0289 62.9965 26.9409 63.1285 26.8235C63.2605 26.7062 63.3485 26.6475 63.3925 26.6475C63.3925 26.6475 63.4072 26.6402 63.4365 26.6255C63.4805 26.6109 63.5025 26.5522 63.5025 26.4495C63.5465 26.4055 63.5905 26.3615 63.6345 26.3175C63.6932 26.2735 63.7225 26.2515 63.7225 26.2515C63.7812 26.2515 63.8545 26.2222 63.9425 26.1635C64.0452 26.0902 64.2138 25.9582 64.4485 25.7675C64.6098 25.6502 64.7565 25.5915 64.8885 25.5915C65.2258 25.4889 65.4972 25.5989 65.7025 25.9215C65.9225 26.2442 66.0325 26.6622 66.0325 27.1755L65.5705 28.3635L66.3625 27.3955C66.4505 27.2782 66.5385 27.1755 66.6265 27.0875C66.7292 26.9995 66.8172 26.9262 66.8905 26.8675C66.9198 26.7649 66.9638 26.7062 67.0225 26.6915C67.0812 26.6769 67.1105 26.6695 67.1105 26.6695C67.1105 26.6695 67.1252 26.6695 67.1545 26.6695C67.1838 26.6549 67.1985 26.6255 67.1985 26.5815C67.2718 26.5229 67.3525 26.4715 67.4405 26.4275C67.5285 26.3689 67.5872 26.3102 67.6165 26.2515C67.8658 26.1489 68.1665 26.1342 68.5185 26.2075C68.8705 26.2662 69.1198 26.4495 69.2665 26.7575C69.3692 26.9335 69.4645 27.0875 69.5525 27.2195C69.6405 27.3515 69.6845 27.5495 69.6845 27.8135C69.6552 28.0335 69.6258 28.1875 69.5965 28.2755C69.5818 28.3635 69.5672 28.4589 69.5525 28.5615C69.5378 28.6495 69.5158 28.8109 69.4865 29.0455C69.4278 29.1629 69.3912 29.2875 69.3765 29.4195C69.3765 29.5515 69.3765 29.6762 69.3765 29.7935C69.3765 29.9842 69.3838 30.1162 69.3985 30.1895C69.4132 30.2482 69.4718 30.2775 69.5745 30.2775C69.7798 30.2335 69.9485 30.1675 70.0805 30.0795C70.2272 29.9769 70.3885 29.8449 70.5645 29.6835C70.7845 29.4782 70.9752 29.4489 71.1365 29.5955C71.3125 29.7275 71.4225 29.8815 71.4665 30.0575C71.4958 30.1162 71.4665 30.2482 71.3785 30.4535C71.2905 30.6589 71.1878 30.8569 71.0705 31.0475C70.9532 31.2382 70.8578 31.3335 70.7845 31.3335C70.7405 31.3335 70.6525 31.3922 70.5205 31.5095C70.3885 31.6269 70.2858 31.7075 70.2125 31.7515C70.1098 31.8542 70.0072 31.9495 69.9045 32.0375C69.8165 32.1255 69.7138 32.1695 69.5965 32.1695C69.5378 32.1695 69.4645 32.1915 69.3765 32.2355C69.3032 32.2649 69.2152 32.2795 69.1125 32.2795C68.9658 32.3235 68.7385 32.3015 68.4305 32.2135C68.1372 32.1255 67.9465 31.9202 67.8585 31.5975C67.7998 31.4362 67.7118 31.2309 67.5945 30.9815C67.4918 30.7322 67.4698 30.4242 67.5285 30.0575C67.5872 29.7935 67.6238 29.5515 67.6385 29.3315C67.6532 29.1115 67.6825 28.9575 67.7265 28.8695C67.7265 28.8255 67.7265 28.7229 67.7265 28.5615C67.7265 28.3855 67.7045 28.2975 67.6605 28.2975C67.6018 28.2975 67.4918 28.3709 67.3305 28.5175C67.1692 28.6642 66.9785 28.8622 66.7585 29.1115C66.5385 29.3462 66.3112 29.6029 66.0765 29.8815C65.8565 30.1602 65.6585 30.4389 65.4825 30.7175C65.3505 30.8789 65.2332 31.0769 65.1305 31.3115C65.0278 31.5462 64.9545 31.6782 64.9105 31.7075C64.8078 31.8249 64.6318 31.8395 64.3825 31.7515C64.1478 31.6635 63.9718 31.5242 63.8545 31.3335C63.8105 31.2455 63.7592 31.1942 63.7005 31.1795C63.6418 31.1502 63.5905 31.1062 63.5465 31.0475C63.5172 30.9742 63.5172 30.8349 63.5465 30.6295C63.5905 30.4242 63.6858 30.0942 63.8325 29.6395C63.9938 29.1409 64.1332 28.6935 64.2505 28.2975C64.3825 27.8869 64.4485 27.6815 64.4485 27.6815C64.4485 27.6229 64.3385 27.6815 64.1185 27.8575C63.8985 28.0189 63.6418 28.2242 63.3485 28.4735C63.2165 28.6349 63.0405 28.8402 62.8205 29.0895C62.6152 29.3389 62.3732 29.6322 62.0945 29.9695C61.8305 30.3069 61.5298 30.7029 61.1925 31.1575C60.7672 31.7589 60.4445 32.1255 60.2245 32.2575C60.0192 32.3895 59.8358 32.3529 59.6745 32.1475ZM78.9752 32.5215C78.5352 32.7709 78.0659 32.9175 77.5672 32.9615C77.0832 32.9909 76.6285 32.9249 76.2032 32.7635C75.7779 32.5875 75.4332 32.3309 75.1692 31.9935C75.0225 31.8029 74.8832 31.5022 74.7512 31.0915C74.6192 30.6662 74.5972 30.0942 74.6852 29.3755C74.7732 28.7009 74.9785 28.0189 75.3012 27.3295C75.6385 26.6402 76.0492 26.0315 76.5332 25.5035C77.0172 24.9755 77.5452 24.6162 78.1172 24.4255C78.3225 24.3522 78.5279 24.3009 78.7332 24.2715C78.9532 24.2275 79.2392 24.2202 79.5912 24.2495C79.9285 24.2935 80.2292 24.3815 80.4932 24.5135C80.7572 24.6309 80.9479 24.7629 81.0652 24.9095C81.2999 25.1442 81.4539 25.3715 81.5272 25.5915C81.6005 25.8115 81.6299 26.0242 81.6152 26.2295C81.5419 26.6989 81.3292 27.2049 80.9772 27.7475C80.6399 28.2902 80.1632 28.6935 79.5472 28.9575C79.2979 29.0602 79.0045 29.1262 78.6672 29.1555C78.3299 29.1849 77.8679 29.1409 77.2812 29.0235C76.9292 28.9502 76.6945 28.9869 76.5772 29.1335C76.4745 29.2802 76.4305 29.5662 76.4452 29.9915C76.4745 30.2555 76.5332 30.4902 76.6212 30.6955C76.7239 30.8862 76.9072 31.0182 77.1712 31.0915C77.5085 31.1502 77.7505 31.1575 77.8972 31.1135C78.0439 31.0549 78.2272 30.9742 78.4472 30.8715C78.5645 30.7982 78.6745 30.7175 78.7772 30.6295C78.8945 30.5415 79.0045 30.4535 79.1072 30.3655C79.2245 30.2775 79.3199 30.2115 79.3932 30.1675C79.4665 30.1089 79.5399 30.0722 79.6132 30.0575C79.6865 30.0429 79.7599 30.0355 79.8332 30.0355C79.9945 30.0502 80.1485 30.1382 80.2952 30.2995C80.4419 30.4609 80.5372 30.6149 80.5812 30.7615C80.5812 30.8789 80.5079 31.0475 80.3612 31.2675C80.2145 31.4729 80.0165 31.6929 79.7672 31.9275C79.5325 32.1475 79.2685 32.3455 78.9752 32.5215ZM78.6892 27.6155C78.7919 27.5715 78.9385 27.4689 79.1292 27.3075C79.3345 27.1462 79.5179 26.9775 79.6792 26.8015C79.8405 26.6109 79.9212 26.4642 79.9212 26.3615C79.9212 26.2002 79.8112 26.0609 79.5912 25.9435C79.3859 25.8262 79.1145 25.8042 78.7772 25.8775C78.6599 25.9069 78.5205 25.9875 78.3592 26.1195C78.1979 26.2515 78.0365 26.4055 77.8752 26.5815C77.7139 26.7429 77.5745 26.9042 77.4572 27.0655C77.3399 27.2122 77.2592 27.3295 77.2152 27.4175C77.2739 27.4909 77.3912 27.5495 77.5672 27.5935C77.7432 27.6375 77.9339 27.6595 78.1392 27.6595C78.3592 27.6595 78.5425 27.6449 78.6892 27.6155ZM84.4309 33.6215C84.2402 33.5482 84.0862 33.4309 83.9689 33.2695C83.8515 33.1229 83.7855 32.9029 83.7709 32.6095C83.7562 32.4189 83.7635 32.1402 83.7929 31.7735C83.8222 31.3922 83.8735 31.0109 83.9469 30.6295C83.9469 30.6002 83.9469 30.5709 83.9469 30.5415C83.9615 30.4975 83.9689 30.4682 83.9689 30.4535C83.9835 30.3949 83.9982 30.3069 84.0129 30.1895C84.0275 30.0575 84.0422 29.9549 84.0569 29.8815C84.0862 29.7935 84.1009 29.7862 84.1009 29.8595L84.2329 29.2655C84.2915 29.0015 84.3575 28.7302 84.4309 28.4515C84.5042 28.1729 84.5702 27.9309 84.6289 27.7255C84.7022 27.5055 84.7462 27.3809 84.7609 27.3515C84.7609 27.3515 84.7829 27.2709 84.8269 27.1095C84.8855 26.9335 84.9442 26.7575 85.0029 26.5815C85.2375 25.8482 85.4575 25.2395 85.6629 24.7555C85.8829 24.2715 86.0735 23.9195 86.2349 23.6995C86.2495 23.6555 86.2715 23.6042 86.3009 23.5455C86.3302 23.4722 86.3522 23.4135 86.3669 23.3695C86.3669 23.2082 86.3742 23.0909 86.3889 23.0175C86.4182 22.9442 86.4549 22.8782 86.4989 22.8195C86.5282 22.7609 86.5722 22.6875 86.6309 22.5995C86.6895 22.4969 86.7555 22.3722 86.8289 22.2255L86.9169 21.9835C87.0049 21.7929 87.1149 21.5729 87.2469 21.3235C87.3789 21.0595 87.4742 20.8615 87.5329 20.7295C87.5769 20.5975 87.6649 20.4435 87.7969 20.2675C87.9289 20.0769 88.0755 19.9522 88.2369 19.8935L88.2149 19.8715C88.2882 19.7395 88.4275 19.6369 88.6329 19.5635C88.8382 19.4755 89.0069 19.4315 89.1389 19.4315C89.3442 19.4315 89.4982 19.4902 89.6009 19.6075C89.7182 19.7249 89.7769 19.8862 89.7769 20.0915C89.7769 20.3115 89.7695 20.4729 89.7549 20.5755C89.7549 20.6635 89.7035 20.7662 89.6009 20.8835H89.6229C89.6522 20.8542 89.6449 20.8982 89.6009 21.0155C89.5569 21.1329 89.5202 21.2135 89.4909 21.2575C89.4615 21.3309 89.4249 21.4115 89.3809 21.4995C89.3515 21.5875 89.3149 21.6535 89.2709 21.6975C89.2269 21.7562 89.1095 21.9615 88.9189 22.3135C88.7282 22.6509 88.5155 23.0542 88.2809 23.5235C88.0462 23.9782 87.8189 24.4255 87.5989 24.8655C87.3935 25.2909 87.2469 25.6209 87.1589 25.8555L87.0489 26.1855C87.0342 26.2442 87.0269 26.2882 87.0269 26.3175C86.9829 26.4202 86.9389 26.5229 86.8949 26.6255C86.8509 26.7282 86.8069 26.8162 86.7629 26.8895L86.4109 28.2535L86.3229 28.7155L86.1249 29.2215L85.9929 29.6395C85.9635 29.7275 85.9415 29.8229 85.9269 29.9255C85.9122 30.0282 85.8829 30.1015 85.8389 30.1455C85.8389 30.1602 85.8315 30.1822 85.8169 30.2115C85.8169 30.2262 85.8169 30.2409 85.8169 30.2555C85.7582 30.4902 85.6555 30.8202 85.5089 31.2455C85.3769 31.6709 85.2962 32.1402 85.2669 32.6535C85.2669 32.6682 85.2595 32.6829 85.2449 32.6975C85.2449 32.7122 85.2449 32.7269 85.2449 32.7415C85.2009 33.0495 85.1055 33.2842 84.9589 33.4455C84.8269 33.6215 84.6509 33.6802 84.4309 33.6215ZM91.311 33.2035C91.0323 33.2769 90.783 33.1962 90.563 32.9615C90.343 32.7415 90.189 32.4115 90.101 31.9715C90.013 31.5315 90.0277 31.0402 90.145 30.4975C90.2183 30.3215 90.277 30.1529 90.321 29.9915C90.365 29.8155 90.387 29.6762 90.387 29.5735C90.4163 29.4269 90.475 29.2142 90.563 28.9355C90.651 28.6422 90.7463 28.3415 90.849 28.0335C90.9517 27.7255 91.047 27.4542 91.135 27.2195C91.2377 26.9702 91.3037 26.8162 91.333 26.7575C91.3917 26.7575 91.443 26.7062 91.487 26.6035C91.531 26.5009 91.553 26.3982 91.553 26.2955C91.553 26.1782 91.575 26.0462 91.619 25.8995C91.6777 25.7529 91.7363 25.6502 91.795 25.5915C91.795 25.5182 91.8097 25.4375 91.839 25.3495C91.883 25.2469 91.905 25.1662 91.905 25.1075C91.905 25.0489 91.9197 24.9902 91.949 24.9315C91.993 24.8729 92.015 24.8142 92.015 24.7555C92.1177 24.5649 92.2497 24.2642 92.411 23.8535C92.587 23.4282 92.7703 22.9589 92.961 22.4455C93.1663 21.9322 93.357 21.4262 93.533 20.9275C93.709 20.4289 93.8483 20.0109 93.951 19.6735C94.0683 19.3215 94.127 19.1089 94.127 19.0355C94.127 18.9182 94.171 18.8082 94.259 18.7055C94.347 18.6029 94.4497 18.5515 94.567 18.5515C94.611 18.5075 94.7137 18.4782 94.875 18.4635C95.0363 18.4342 95.1463 18.4195 95.205 18.4195C95.205 18.4195 95.2343 18.4489 95.293 18.5075C95.3517 18.5662 95.4397 18.6542 95.557 18.7715C95.6743 18.8742 95.7843 18.9915 95.887 19.1235C96.0043 19.2555 96.063 19.4095 96.063 19.5855C96.063 19.7762 96.0337 19.9595 95.975 20.1355C95.931 20.3115 95.843 20.5535 95.711 20.8615C95.579 21.1549 95.3737 21.5949 95.095 22.1815C94.9777 22.4749 94.853 22.7535 94.721 23.0175C94.589 23.2669 94.523 23.4209 94.523 23.4795C94.523 23.5382 94.4937 23.6262 94.435 23.7435C94.391 23.8609 94.3397 24.0075 94.281 24.1835C94.2223 24.3009 94.1417 24.4769 94.039 24.7115C93.9363 24.9315 93.8263 25.1735 93.709 25.4375C93.6063 25.6869 93.5183 25.9069 93.445 26.0975C93.3717 26.2735 93.335 26.3762 93.335 26.4055C93.335 26.4642 93.3277 26.5229 93.313 26.5815C93.313 26.6402 93.2837 26.6989 93.225 26.7575C93.1663 26.7575 93.1297 26.8015 93.115 26.8895C93.115 26.9629 93.115 26.9995 93.115 26.9995C93.115 27.1462 92.9977 27.5349 92.763 28.1655C92.5283 28.9722 92.3083 29.7129 92.103 30.3875C91.9123 31.0622 91.817 31.6049 91.817 32.0155C91.817 32.3675 91.7583 32.6389 91.641 32.8295C91.5383 33.0202 91.4283 33.1449 91.311 33.2035ZM98.7192 33.3575C97.9125 33.3575 97.2892 33.1229 96.8492 32.6535C96.4238 32.1842 96.2112 31.4655 96.2112 30.4975C96.2112 29.9695 96.3065 29.3902 96.4972 28.7595C96.7025 28.1289 96.9665 27.5129 97.2892 26.9115C97.6265 26.3102 97.9932 25.7895 98.3892 25.3495C98.7852 24.8949 99.1812 24.5795 99.5772 24.4035C99.7238 24.3302 99.8778 24.2789 100.039 24.2495C100.215 24.2055 100.384 24.1835 100.545 24.1835C100.721 24.1835 100.912 24.1982 101.117 24.2275C101.337 24.2422 101.543 24.2862 101.733 24.3595C102.071 24.4622 102.364 24.6602 102.613 24.9535C102.877 25.2469 103.009 25.6722 103.009 26.2295C103.009 26.3762 102.995 26.5375 102.965 26.7135C102.936 26.8749 102.885 27.0362 102.811 27.1975C102.621 27.6815 102.327 28.1435 101.931 28.5835C101.55 29.0235 101.147 29.3315 100.721 29.5075C100.604 29.5662 100.487 29.6102 100.369 29.6395C100.267 29.6542 100.157 29.6615 100.039 29.6615C99.7312 29.6615 99.4525 29.6175 99.2032 29.5295C98.9685 29.4415 98.7485 29.3242 98.5432 29.1775L98.3672 29.0235L98.2572 29.2435C98.1545 29.5222 98.0812 29.7569 98.0372 29.9475C98.0078 30.1382 97.9932 30.2775 97.9932 30.3655C97.9932 30.5415 98.0005 30.7249 98.0152 30.9155C98.0298 31.0915 98.0738 31.2382 98.1472 31.3555C98.2058 31.4289 98.2792 31.4875 98.3672 31.5315C98.4698 31.5755 98.5945 31.5975 98.7412 31.5975C98.8292 31.5975 98.9098 31.5975 98.9832 31.5975C99.0712 31.5829 99.1445 31.5682 99.2032 31.5535C99.4672 31.4949 99.6798 31.3995 99.8412 31.2675C100.017 31.1209 100.201 30.9962 100.391 30.8935L100.479 30.8495L100.457 30.7835C100.707 30.6515 100.875 30.5709 100.963 30.5415C101.051 30.4975 101.117 30.4609 101.161 30.4315C101.22 30.3729 101.286 30.3435 101.359 30.3435C101.565 30.3142 101.763 30.3729 101.953 30.5195C102.159 30.6515 102.261 30.8202 102.261 31.0255C102.261 31.1135 102.195 31.2529 102.063 31.4435C101.946 31.6342 101.792 31.8249 101.601 32.0155C101.425 32.1915 101.242 32.3309 101.051 32.4335C101.007 32.4482 100.963 32.4702 100.919 32.4995C100.875 32.5142 100.831 32.5362 100.787 32.5655H100.809C100.677 32.7415 100.545 32.8295 100.413 32.8295H100.237C100.179 32.9322 99.9878 33.0422 99.6652 33.1595C99.3425 33.2915 99.0272 33.3575 98.7192 33.3575ZM99.8632 28.0555C99.9952 28.0555 100.113 28.0335 100.215 27.9895C100.333 27.9455 100.443 27.8942 100.545 27.8355C100.897 27.5862 101.125 27.2635 101.227 26.8675C101.33 26.4715 101.293 26.1709 101.117 25.9655C101.088 25.9215 101.051 25.8922 101.007 25.8775C100.963 25.8482 100.912 25.8335 100.853 25.8335C100.692 25.8335 100.509 25.8849 100.303 25.9875C100.113 26.0902 99.9218 26.2369 99.7312 26.4275C99.5405 26.6182 99.3645 26.8455 99.2032 27.1095L98.9172 27.5715C98.9465 27.5569 98.9685 27.5495 98.9832 27.5495C99.0125 27.5349 99.0345 27.5275 99.0492 27.5275C99.1812 27.5275 99.2692 27.5715 99.3132 27.6595C99.3572 27.7475 99.4085 27.8355 99.4672 27.9235C99.5405 28.0115 99.6725 28.0555 99.8632 28.0555Z" fill="#2F3B69"/>
</svg>
