<svg width="202" height="66" viewBox="0 0 202 66" fill="none" xmlns="http://www.w3.org/2000/svg">
<path d="M91.9883 45.7268C92.5643 45.7268 93.0203 45.8388 93.3563 46.0628C93.4843 46.1268 93.5323 46.2468 93.5003 46.4228L92.9963 49.1588C92.9803 49.3508 92.8683 49.4068 92.6603 49.3268C92.4203 49.2468 92.1403 49.2068 91.8203 49.2068C91.6923 49.2068 91.5163 49.2228 91.2923 49.2548C90.7163 49.3028 90.2283 49.5188 89.8283 49.9028C89.4283 50.2708 89.2283 50.7668 89.2283 51.3908V57.9428C89.2283 58.0228 89.1963 58.0948 89.1323 58.1588C89.0843 58.2068 89.0203 58.2308 88.9403 58.2308H86.1323C86.0523 58.2308 85.9803 58.2068 85.9163 58.1588C85.8683 58.0948 85.8443 58.0228 85.8443 57.9428V46.1828C85.8443 46.1028 85.8683 46.0388 85.9163 45.9908C85.9803 45.9268 86.0523 45.8948 86.1323 45.8948H88.9403C89.0203 45.8948 89.0843 45.9268 89.1323 45.9908C89.1963 46.0388 89.2283 46.1028 89.2283 46.1828V47.0948C89.2283 47.1428 89.2443 47.1748 89.2763 47.1908C89.3083 47.2068 89.3323 47.1988 89.3483 47.1668C90.0043 46.2068 90.8843 45.7268 91.9883 45.7268ZM105.832 46.1828C105.832 46.1028 105.856 46.0388 105.904 45.9908C105.968 45.9268 106.04 45.8948 106.12 45.8948H108.928C109.008 45.8948 109.072 45.9268 109.12 45.9908C109.184 46.0388 109.216 46.1028 109.216 46.1828V57.9428C109.216 58.0228 109.184 58.0948 109.12 58.1588C109.072 58.2068 109.008 58.2308 108.928 58.2308H106.12C106.04 58.2308 105.968 58.2068 105.904 58.1588C105.856 58.0948 105.832 58.0228 105.832 57.9428V57.1268C105.832 57.0788 105.816 57.0548 105.784 57.0548C105.752 57.0388 105.72 57.0548 105.688 57.1028C105.048 57.9668 104.056 58.3988 102.712 58.3988C101.496 58.3988 100.496 58.0308 99.7118 57.2948C98.9278 56.5588 98.5358 55.5268 98.5358 54.1988V46.1828C98.5358 46.1028 98.5598 46.0388 98.6078 45.9908C98.6718 45.9268 98.7438 45.8948 98.8238 45.8948H101.608C101.688 45.8948 101.752 45.9268 101.8 45.9908C101.864 46.0388 101.896 46.1028 101.896 46.1828V53.3588C101.896 53.9988 102.064 54.5188 102.4 54.9188C102.752 55.3188 103.232 55.5188 103.84 55.5188C104.384 55.5188 104.832 55.3588 105.184 55.0388C105.536 54.7028 105.752 54.2708 105.832 53.7428V46.1828ZM121.742 45.7028C123.022 45.7028 124.054 46.0948 124.838 46.8788C125.622 47.6628 126.014 48.7268 126.014 50.0708V57.9428C126.014 58.0228 125.982 58.0948 125.918 58.1588C125.87 58.2068 125.806 58.2308 125.726 58.2308H122.918C122.838 58.2308 122.766 58.2068 122.702 58.1588C122.654 58.0948 122.63 58.0228 122.63 57.9428V50.7668C122.63 50.1268 122.446 49.6068 122.078 49.2068C121.726 48.8068 121.254 48.6068 120.662 48.6068C120.07 48.6068 119.59 48.8068 119.222 49.2068C118.87 49.6068 118.694 50.1268 118.694 50.7668V57.9428C118.694 58.0228 118.662 58.0948 118.598 58.1588C118.55 58.2068 118.486 58.2308 118.406 58.2308H115.598C115.518 58.2308 115.446 58.2068 115.382 58.1588C115.334 58.0948 115.31 58.0228 115.31 57.9428V46.1828C115.31 46.1028 115.334 46.0388 115.382 45.9908C115.446 45.9268 115.518 45.8948 115.598 45.8948H118.406C118.486 45.8948 118.55 45.9268 118.598 45.9908C118.662 46.0388 118.694 46.1028 118.694 46.1828V47.0228C118.694 47.0708 118.71 47.1028 118.742 47.1188C118.774 47.1348 118.798 47.1268 118.814 47.0948C119.47 46.1668 120.446 45.7028 121.742 45.7028ZM142.885 50.7908C142.981 51.3988 143.013 52.0788 142.981 52.8308C142.965 53.0228 142.861 53.1188 142.669 53.1188H135.253C135.157 53.1188 135.125 53.1588 135.157 53.2388C135.205 53.5588 135.293 53.8788 135.421 54.1988C135.837 55.0948 136.685 55.5428 137.965 55.5428C138.989 55.5268 139.797 55.1108 140.389 54.2948C140.453 54.1988 140.525 54.1508 140.605 54.1508C140.653 54.1508 140.709 54.1828 140.773 54.2468L142.501 55.9508C142.581 56.0308 142.621 56.1028 142.621 56.1668C142.621 56.1988 142.589 56.2628 142.525 56.3588C141.997 57.0148 141.317 57.5268 140.485 57.8948C139.653 58.2468 138.741 58.4228 137.749 58.4228C136.373 58.4228 135.205 58.1108 134.245 57.4868C133.301 56.8628 132.621 55.9908 132.205 54.8708C131.869 54.0708 131.701 53.0228 131.701 51.7268C131.701 50.8468 131.821 50.0708 132.061 49.3988C132.429 48.2628 133.069 47.3588 133.981 46.6868C134.909 46.0148 136.005 45.6788 137.269 45.6788C138.869 45.6788 140.149 46.1428 141.109 47.0708C142.085 47.9988 142.677 49.2388 142.885 50.7908ZM137.293 48.6068C136.285 48.6068 135.621 49.0788 135.301 50.0228C135.237 50.2308 135.181 50.4868 135.133 50.7908C135.133 50.8708 135.173 50.9108 135.253 50.9108H139.405C139.501 50.9108 139.533 50.8708 139.501 50.7908C139.421 50.3268 139.381 50.1028 139.381 50.1188C139.237 49.6388 138.981 49.2708 138.613 49.0148C138.261 48.7428 137.821 48.6068 137.293 48.6068ZM153.469 45.7028C154.509 45.7028 155.437 45.8868 156.253 46.2548C157.069 46.6068 157.701 47.0948 158.149 47.7188C158.613 48.3428 158.845 49.0388 158.845 49.8068V57.9428C158.845 58.0228 158.813 58.0948 158.749 58.1588C158.701 58.2068 158.637 58.2308 158.557 58.2308H155.749C155.669 58.2308 155.597 58.2068 155.533 58.1588C155.485 58.0948 155.461 58.0228 155.461 57.9428V57.1508C155.461 57.1028 155.445 57.0708 155.413 57.0548C155.381 57.0388 155.349 57.0548 155.317 57.1028C154.645 57.9828 153.565 58.4228 152.077 58.4228C150.829 58.4228 149.821 58.1188 149.053 57.5108C148.285 56.9028 147.901 56.0068 147.901 54.8228C147.901 53.5908 148.333 52.6388 149.197 51.9668C150.061 51.2788 151.293 50.9348 152.893 50.9348H155.341C155.421 50.9348 155.461 50.8948 155.461 50.8148V50.2868C155.461 49.7588 155.301 49.3508 154.981 49.0628C154.661 48.7588 154.181 48.6068 153.541 48.6068C153.045 48.6068 152.629 48.6948 152.293 48.8708C151.973 49.0468 151.765 49.2948 151.669 49.6148C151.621 49.7908 151.517 49.8708 151.357 49.8548L148.453 49.4708C148.261 49.4388 148.173 49.3668 148.189 49.2548C148.253 48.5828 148.517 47.9748 148.981 47.4308C149.461 46.8868 150.085 46.4628 150.853 46.1588C151.637 45.8548 152.509 45.7028 153.469 45.7028ZM152.989 55.9028C153.677 55.9028 154.261 55.7188 154.741 55.3508C155.221 54.9828 155.461 54.5108 155.461 53.9348V53.0708C155.461 52.9908 155.421 52.9508 155.341 52.9508H153.613C152.893 52.9508 152.325 53.0868 151.909 53.3588C151.509 53.6308 151.309 54.0148 151.309 54.5108C151.309 54.9428 151.461 55.2868 151.765 55.5428C152.069 55.7828 152.477 55.9028 152.989 55.9028ZM172.029 46.1828C172.029 46.1028 172.053 46.0388 172.101 45.9908C172.165 45.9268 172.237 45.8948 172.317 45.8948H175.125C175.205 45.8948 175.269 45.9268 175.317 45.9908C175.381 46.0388 175.413 46.1028 175.413 46.1828V57.9428C175.413 58.0228 175.381 58.0948 175.317 58.1588C175.269 58.2068 175.205 58.2308 175.125 58.2308H172.317C172.237 58.2308 172.165 58.2068 172.101 58.1588C172.053 58.0948 172.029 58.0228 172.029 57.9428V57.1268C172.029 57.0788 172.013 57.0548 171.981 57.0548C171.949 57.0388 171.917 57.0548 171.885 57.1028C171.245 57.9668 170.253 58.3988 168.909 58.3988C167.693 58.3988 166.693 58.0308 165.909 57.2948C165.125 56.5588 164.733 55.5268 164.733 54.1988V46.1828C164.733 46.1028 164.757 46.0388 164.805 45.9908C164.869 45.9268 164.941 45.8948 165.021 45.8948H167.805C167.885 45.8948 167.949 45.9268 167.997 45.9908C168.061 46.0388 168.093 46.1028 168.093 46.1828V53.3588C168.093 53.9988 168.261 54.5188 168.597 54.9188C168.949 55.3188 169.429 55.5188 170.037 55.5188C170.581 55.5188 171.029 55.3588 171.381 55.0388C171.733 54.7028 171.949 54.2708 172.029 53.7428V46.1828ZM181.027 58.2308C180.915 58.2308 180.835 58.1988 180.787 58.1348C180.755 58.0548 180.771 57.9668 180.835 57.8708L184.699 52.1348C184.731 52.0868 184.731 52.0388 184.699 51.9908L180.835 46.2548C180.803 46.1908 180.787 46.1348 180.787 46.0868C180.787 45.9588 180.867 45.8948 181.027 45.8948H184.027C184.171 45.8948 184.283 45.9588 184.363 46.0868L186.523 49.3748C186.587 49.4708 186.643 49.4708 186.691 49.3748L188.851 46.0868C188.931 45.9588 189.043 45.8948 189.187 45.8948H192.403C192.515 45.8948 192.587 45.9348 192.619 46.0148C192.651 46.0788 192.635 46.1588 192.571 46.2548L188.731 51.9908C188.715 52.0388 188.715 52.0868 188.731 52.1348L192.571 57.8708C192.603 57.9188 192.619 57.9748 192.619 58.0388C192.619 58.1668 192.547 58.2308 192.403 58.2308H189.379C189.235 58.2308 189.123 58.1668 189.043 58.0388L186.883 54.7508C186.835 54.6548 186.787 54.6548 186.739 54.7508L184.579 58.0388C184.499 58.1668 184.387 58.2308 184.243 58.2308H181.027Z" fill="#D55816"/>
<path d="M76.7585 28.1044C76.4252 28.2722 76.4252 28.4399 76.7585 28.6077C82.0352 31.3483 84.6736 35.9065 84.6736 42.2824C84.6736 47.7076 82.8406 51.8183 79.1747 54.6148C75.5087 57.3553 70.7041 58.7255 64.7609 58.7255H51.1088C51.1088 59.3248 51.0489 57.5241 51.1088 56.9278C52.3659 44.4231 40.3966 48.4905 42.182 48.4905V1.00672C42.182 0.727118 42.2653 0.503363 42.4319 0.335575C42.6541 0.111819 42.9041 0 43.1818 0H64.0943C77.2584 0 83.8404 5.36919 83.8404 16.1076C83.8404 21.7005 81.4798 25.6994 76.7585 28.1044ZM54.3463 10.1511C54.0686 10.1511 53.9297 10.291 53.9297 10.5706V23.658C53.9297 23.9376 54.0686 24.0775 54.3463 24.0775H64.0943C66.7049 24.0775 68.7323 23.4623 70.1765 22.2318C71.6206 21.0013 72.3427 19.3235 72.3427 17.1982C72.3427 15.017 71.6206 13.3112 70.1765 12.0807C68.7323 10.7944 66.7049 10.1511 64.0943 10.1511H54.3463ZM64.7609 48.4905C67.3159 48.4905 69.3155 47.8473 70.7597 46.561C72.2038 45.2187 72.9259 43.4009 72.9259 41.1079C72.9259 38.8148 72.2038 37.025 70.7597 35.7387C69.3155 34.3964 67.2881 33.7252 64.6775 33.7252H54.3463C54.0686 33.7252 53.9297 33.8651 53.9297 34.1447V48.0711C53.9297 48.3507 54.0686 48.4905 54.3463 48.4905H64.7609Z" fill="#D55816"/>
<path d="M29.364 0H42.8762V39.9493H18.7891L29.364 0Z" fill="#D55816"/>
<path d="M40.3846 58.8461C39.7815 58.8461 39.2173 57.2999 39.0528 56.7516L36.9143 49.4314C36.8047 49.2121 36.6676 49.1025 36.5031 49.1025H17.7504C17.5859 49.1025 17.4489 49.2121 17.3392 49.4314L15.2007 56.7516C15.0362 57.2999 14.4494 58.8461 13.8462 58.8461H1.73077C1.40177 58.8461 0.576923 58.8461 0 58.8461C0 58.8461 0.53306 56.8064 0.642721 56.4226L18.2439 0.822487C18.4084 0.274124 18.7649 0 19.3131 0H34.8581C35.4065 0 35.7629 0.274124 35.9274 0.822487L53.6108 56.4226C53.6657 56.5322 54.3953 58.8461 54.2308 58.8461C51.9231 58.8461 53.6802 58.8461 53.0769 58.8461H40.3846ZM20.6291 38.0811C20.5743 38.4101 20.684 38.5746 20.9581 38.5746H33.2131C33.5421 38.5746 33.6519 38.4101 33.5421 38.0811L27.2912 16.9432C27.2365 16.7239 27.1542 16.6416 27.0445 16.6965C26.9349 16.6965 26.8526 16.7787 26.7978 16.9432L20.6291 38.0811Z" fill="#2F3B69"/>
<path d="M52.808 39.136C52.616 38.9867 52.4027 38.7947 52.168 38.56C51.9547 38.3253 51.88 37.9947 51.944 37.568C52.008 36.9707 52.0933 36.448 52.2 36C52.3067 35.5307 52.4347 34.9973 52.584 34.4C52.6267 34.144 52.7333 33.7067 52.904 33.088C53.096 32.4693 53.32 31.7973 53.576 31.072C53.832 30.3467 54.0987 29.664 54.376 29.024C54.6533 28.3627 54.8987 27.872 55.112 27.552C55.3467 27.3387 55.688 27.232 56.136 27.232C56.6053 27.232 56.9253 27.3173 57.096 27.488C57.3307 27.68 57.4053 28.0213 57.32 28.512C57.2347 28.9813 56.936 29.7173 56.424 30.72C56.3173 30.976 56.1787 31.2533 56.008 31.552C55.8587 31.8293 55.752 32.064 55.688 32.256C55.624 32.4267 55.6453 32.5013 55.752 32.48C55.88 32.2453 56.1147 31.9787 56.456 31.68C56.7973 31.36 57.16 31.0507 57.544 30.752C57.928 30.4533 58.2907 30.1867 58.632 29.952C58.9733 29.7173 59.208 29.568 59.336 29.504C59.5067 29.3973 59.6987 29.312 59.912 29.248C60.1467 29.1627 60.3067 29.0987 60.392 29.056C60.8827 28.8213 61.416 28.736 61.992 28.8C62.5893 28.8427 62.952 29.024 63.08 29.344C63.1013 29.5147 63.1653 29.6427 63.272 29.728C63.4 29.8133 63.464 29.856 63.464 29.856C63.5493 29.856 63.592 29.888 63.592 29.952C63.6133 30.016 63.624 30.048 63.624 30.048C63.624 30.1973 63.4747 30.4107 63.176 30.688C62.8987 30.9653 62.5893 31.1147 62.248 31.136C61.9707 31.1573 61.7253 31.2107 61.512 31.296C61.2987 31.3813 61.0427 31.488 60.744 31.616C59.9333 32.0853 59.1973 32.5013 58.536 32.864C57.896 33.2267 57.2347 33.7813 56.552 34.528C56.4027 34.6987 56.2427 34.8587 56.072 35.008C55.9013 35.1573 55.7307 35.3707 55.56 35.648C55.4533 35.7547 55.3467 35.9893 55.24 36.352C55.1333 36.7147 55.0373 37.0667 54.952 37.408C54.888 37.728 54.856 37.92 54.856 37.984C54.856 37.984 54.824 38.0907 54.76 38.304C54.696 38.496 54.5893 38.688 54.44 38.88C54.184 39.2213 53.928 39.4347 53.672 39.52C53.4373 39.6053 53.1493 39.4773 52.808 39.136ZM67.8273 38.816C67.7632 38.7307 67.6246 38.624 67.4112 38.496C67.1979 38.368 67.0912 38.2613 67.0912 38.176C67.0912 38.1333 67.0806 38.08 67.0592 38.016C67.0592 37.952 67.0166 37.92 66.9312 37.92C66.8672 37.856 66.8992 37.6213 67.0273 37.216C67.1766 36.8107 67.3686 36.3307 67.6033 35.776C67.8592 35.2213 68.1259 34.688 68.4033 34.176C68.6806 33.6427 68.9153 33.216 69.1073 32.896C69.2139 32.832 69.2779 32.7467 69.2993 32.64C69.3419 32.512 69.3419 32.448 69.2993 32.448C69.2993 32.448 69.3526 32.352 69.4592 32.16C69.5872 31.9467 69.6832 31.808 69.7473 31.744C69.9179 31.4453 70.0459 31.1467 70.1312 30.848C70.2166 30.528 70.2379 30.2613 70.1953 30.048C70.1099 29.9413 70.0139 29.9093 69.9072 29.952C69.8006 29.9947 69.7473 30.016 69.7473 30.016C69.6619 30.0373 69.5339 30.08 69.3633 30.144C69.2139 30.1867 69.0753 30.2507 68.9472 30.336C68.4566 30.6773 68.0939 30.848 67.8593 30.848C67.6459 30.848 67.4326 30.592 67.2192 30.08C67.1339 29.8453 67.1019 29.6213 67.1233 29.408C67.1446 29.1947 67.2299 29.024 67.3793 28.896C67.5499 28.7467 67.7633 28.5973 68.0192 28.448C68.2753 28.2773 68.4459 28.16 68.5312 28.096C68.7659 27.9467 69.0966 27.7867 69.5233 27.616C69.9499 27.4453 70.2059 27.3493 70.2913 27.328C70.8459 27.1573 71.3153 27.1573 71.6993 27.328C72.0833 27.4773 72.3713 27.776 72.5633 28.224C72.8619 28.5867 73.0113 28.9707 73.0113 29.376C73.0113 29.7813 72.8619 30.2827 72.5633 30.88L72.2432 31.36C72.1366 31.5733 72.1152 31.68 72.1792 31.68C72.2646 31.68 72.3606 31.6053 72.4672 31.456C72.5313 31.3707 72.6593 31.2427 72.8513 31.072C73.0433 30.9013 73.1713 30.816 73.2353 30.816C73.2353 30.816 73.2566 30.8053 73.2993 30.784C73.3633 30.7627 73.3953 30.6773 73.3953 30.528C73.4593 30.464 73.5233 30.4 73.5873 30.336C73.6726 30.272 73.7153 30.24 73.7153 30.24C73.8006 30.24 73.9073 30.1973 74.0353 30.112C74.1846 30.0053 74.4299 29.8133 74.7713 29.536C75.0059 29.3653 75.2193 29.28 75.4113 29.28C75.9019 29.1307 76.2966 29.2907 76.5953 29.76C76.9153 30.2293 77.0753 30.8373 77.0753 31.584L76.4033 33.312L77.5553 31.904C77.6833 31.7333 77.8113 31.584 77.9393 31.456C78.0886 31.328 78.2166 31.2213 78.3233 31.136C78.3659 30.9867 78.4299 30.9013 78.5153 30.88C78.6006 30.8587 78.6433 30.848 78.6433 30.848C78.6433 30.848 78.6646 30.848 78.7073 30.848C78.7499 30.8267 78.7713 30.784 78.7713 30.72C78.8779 30.6347 78.9953 30.56 79.1233 30.496C79.2513 30.4107 79.3366 30.3253 79.3793 30.24C79.7419 30.0907 80.1793 30.0693 80.6913 30.176C81.2033 30.2613 81.5659 30.528 81.7793 30.976C81.9286 31.232 82.0673 31.456 82.1953 31.648C82.3233 31.84 82.3872 32.128 82.3872 32.512C82.3446 32.832 82.3019 33.056 82.2593 33.184C82.2379 33.312 82.2166 33.4507 82.1953 33.6C82.1739 33.728 82.1419 33.9627 82.0992 34.304C82.0139 34.4747 81.9606 34.656 81.9392 34.848C81.9392 35.04 81.9392 35.2213 81.9392 35.392C81.9392 35.6693 81.9499 35.8613 81.9713 35.968C81.9926 36.0533 82.0779 36.096 82.2273 36.096C82.5259 36.032 82.7713 35.936 82.9633 35.808C83.1766 35.6587 83.4113 35.4667 83.6673 35.232C83.9873 34.9333 84.2646 34.8907 84.4993 35.104C84.7553 35.296 84.9153 35.52 84.9793 35.776C85.0219 35.8613 84.9793 36.0533 84.8513 36.352C84.7233 36.6507 84.5739 36.9387 84.4033 37.216C84.2326 37.4933 84.0939 37.632 83.9873 37.632C83.9233 37.632 83.7953 37.7173 83.6033 37.888C83.4113 38.0587 83.2619 38.176 83.1553 38.24C83.0059 38.3893 82.8566 38.528 82.7073 38.656C82.5793 38.784 82.4299 38.848 82.2593 38.848C82.1739 38.848 82.0673 38.88 81.9392 38.944C81.8326 38.9867 81.7046 39.008 81.5553 39.008C81.3419 39.072 81.0113 39.04 80.5633 38.912C80.1366 38.784 79.8593 38.4853 79.7312 38.016C79.6459 37.7813 79.5179 37.4827 79.3473 37.12C79.1979 36.7573 79.1659 36.3093 79.2513 35.776C79.3366 35.392 79.3899 35.04 79.4113 34.72C79.4326 34.4 79.4753 34.176 79.5393 34.048C79.5393 33.984 79.5393 33.8347 79.5393 33.6C79.5393 33.344 79.5073 33.216 79.4433 33.216C79.3579 33.216 79.1979 33.3227 78.9633 33.536C78.7286 33.7493 78.4513 34.0373 78.1313 34.4C77.8113 34.7413 77.4806 35.1147 77.1393 35.52C76.8193 35.9253 76.5313 36.3307 76.2753 36.736C76.0833 36.9707 75.9126 37.2587 75.7633 37.6C75.6139 37.9413 75.5073 38.1333 75.4433 38.176C75.2939 38.3467 75.0379 38.368 74.6753 38.24C74.3339 38.112 74.0779 37.9093 73.9073 37.632C73.8433 37.504 73.7686 37.4293 73.6833 37.408C73.5979 37.3653 73.5233 37.3013 73.4593 37.216C73.4166 37.1093 73.4166 36.9067 73.4593 36.608C73.5233 36.3093 73.6619 35.8293 73.8752 35.168C74.1099 34.4427 74.3126 33.792 74.4833 33.216C74.6753 32.6187 74.7713 32.32 74.7713 32.32C74.7713 32.2347 74.6113 32.32 74.2913 32.576C73.9713 32.8107 73.5979 33.1093 73.1713 33.472C72.9793 33.7067 72.7233 34.0053 72.4033 34.368C72.1046 34.7307 71.7526 35.1573 71.3472 35.648C70.9633 36.1387 70.5259 36.7147 70.0353 37.376C69.4166 38.2507 68.9473 38.784 68.6273 38.976C68.3286 39.168 68.0619 39.1147 67.8273 38.816ZM95.901 39.36C95.261 39.7227 94.5783 39.936 93.853 40C93.149 40.0427 92.4877 39.9467 91.869 39.712C91.2503 39.456 90.749 39.0827 90.365 38.592C90.1517 38.3147 89.949 37.8773 89.757 37.28C89.565 36.6613 89.533 35.8293 89.661 34.784C89.789 33.8027 90.0877 32.8107 90.557 31.808C91.0477 30.8053 91.645 29.92 92.349 29.152C93.053 28.384 93.821 27.8613 94.653 27.584C94.9517 27.4773 95.2503 27.4027 95.549 27.36C95.869 27.296 96.285 27.2853 96.797 27.328C97.2877 27.392 97.725 27.52 98.109 27.712C98.493 27.8827 98.7703 28.0747 98.941 28.288C99.2823 28.6293 99.5063 28.96 99.613 29.28C99.7197 29.6 99.7623 29.9093 99.741 30.208C99.6343 30.8907 99.325 31.6267 98.813 32.416C98.3223 33.2053 97.629 33.792 96.733 34.176C96.3703 34.3253 95.9437 34.4213 95.453 34.464C94.9623 34.5067 94.2903 34.4427 93.437 34.272C92.925 34.1653 92.5837 34.2187 92.413 34.432C92.2637 34.6453 92.1997 35.0613 92.221 35.68C92.2637 36.064 92.349 36.4053 92.477 36.704C92.6263 36.9813 92.893 37.1733 93.277 37.28C93.7677 37.3653 94.1197 37.376 94.333 37.312C94.5463 37.2267 94.813 37.1093 95.133 36.96C95.3037 36.8533 95.4637 36.736 95.613 36.608C95.7837 36.48 95.9437 36.352 96.093 36.224C96.2637 36.096 96.4023 36 96.509 35.936C96.6157 35.8507 96.7223 35.7973 96.829 35.776C96.9357 35.7547 97.0423 35.744 97.149 35.744C97.3837 35.7653 97.6077 35.8933 97.821 36.128C98.0343 36.3627 98.173 36.5867 98.237 36.8C98.237 36.9707 98.1303 37.216 97.917 37.536C97.7037 37.8347 97.4157 38.1547 97.053 38.496C96.7117 38.816 96.3277 39.104 95.901 39.36ZM95.485 32.224C95.6343 32.16 95.8477 32.0107 96.125 31.776C96.4237 31.5413 96.6903 31.296 96.925 31.04C97.1597 30.7627 97.277 30.5493 97.277 30.4C97.277 30.1653 97.117 29.9627 96.797 29.792C96.4983 29.6213 96.1037 29.5893 95.613 29.696C95.4423 29.7387 95.2397 29.856 95.005 30.048C94.7703 30.24 94.5357 30.464 94.301 30.72C94.0663 30.9547 93.8637 31.1893 93.693 31.424C93.5223 31.6373 93.405 31.808 93.341 31.936C93.4263 32.0427 93.597 32.128 93.853 32.192C94.109 32.256 94.3863 32.288 94.685 32.288C95.005 32.288 95.2717 32.2667 95.485 32.224ZM103.836 40.96C103.559 40.8533 103.335 40.6827 103.164 40.448C102.994 40.2347 102.898 39.9147 102.876 39.488C102.855 39.2107 102.866 38.8053 102.908 38.272C102.951 37.7173 103.026 37.1627 103.132 36.608C103.132 36.5653 103.132 36.5227 103.132 36.48C103.154 36.416 103.164 36.3733 103.164 36.352C103.186 36.2667 103.207 36.1387 103.228 35.968C103.25 35.776 103.271 35.6267 103.292 35.52C103.335 35.392 103.356 35.3813 103.356 35.488L103.548 34.624C103.634 34.24 103.73 33.8453 103.836 33.44C103.943 33.0347 104.039 32.6827 104.124 32.384C104.231 32.064 104.295 31.8827 104.316 31.84C104.316 31.84 104.348 31.7227 104.412 31.488C104.498 31.232 104.583 30.976 104.668 30.72C105.01 29.6533 105.33 28.768 105.628 28.064C105.948 27.36 106.226 26.848 106.46 26.528C106.482 26.464 106.514 26.3893 106.556 26.304C106.599 26.1973 106.631 26.112 106.652 26.048C106.652 25.8133 106.663 25.6427 106.684 25.536C106.727 25.4293 106.78 25.3333 106.844 25.248C106.887 25.1627 106.951 25.056 107.036 24.928C107.122 24.7787 107.218 24.5973 107.324 24.384L107.452 24.032C107.58 23.7547 107.74 23.4347 107.932 23.072C108.124 22.688 108.263 22.4 108.348 22.208C108.412 22.016 108.54 21.792 108.732 21.536C108.924 21.2587 109.138 21.0773 109.372 20.992L109.34 20.96C109.447 20.768 109.65 20.6187 109.948 20.512C110.247 20.384 110.492 20.32 110.684 20.32C110.983 20.32 111.207 20.4053 111.356 20.576C111.527 20.7467 111.612 20.9813 111.612 21.28C111.612 21.6 111.602 21.8347 111.58 21.984C111.58 22.112 111.506 22.2613 111.356 22.432H111.388C111.431 22.3893 111.42 22.4533 111.356 22.624C111.292 22.7947 111.239 22.912 111.196 22.976C111.154 23.0827 111.1 23.2 111.036 23.328C110.994 23.456 110.94 23.552 110.876 23.616C110.812 23.7013 110.642 24 110.364 24.512C110.087 25.0027 109.778 25.5893 109.436 26.272C109.095 26.9333 108.764 27.584 108.444 28.224C108.146 28.8427 107.932 29.3227 107.804 29.664L107.644 30.144C107.623 30.2293 107.612 30.2933 107.612 30.336C107.548 30.4853 107.484 30.6347 107.42 30.784C107.356 30.9333 107.292 31.0613 107.228 31.168L106.716 33.152L106.588 33.824L106.3 34.56L106.108 35.168C106.066 35.296 106.034 35.4347 106.012 35.584C105.991 35.7333 105.948 35.84 105.884 35.904C105.884 35.9253 105.874 35.9573 105.852 36C105.852 36.0213 105.852 36.0427 105.852 36.064C105.767 36.4053 105.618 36.8853 105.404 37.504C105.212 38.1227 105.095 38.8053 105.052 39.552C105.052 39.5733 105.042 39.5947 105.02 39.616C105.02 39.6373 105.02 39.6587 105.02 39.68C104.956 40.128 104.818 40.4693 104.604 40.704C104.412 40.96 104.156 41.0453 103.836 40.96ZM113.844 40.352C113.439 40.4587 113.076 40.3413 112.756 40C112.436 39.68 112.212 39.2 112.084 38.56C111.956 37.92 111.977 37.2053 112.148 36.416C112.255 36.16 112.34 35.9147 112.404 35.68C112.468 35.424 112.5 35.2213 112.5 35.072C112.543 34.8587 112.628 34.5493 112.756 34.144C112.884 33.7173 113.023 33.28 113.172 32.832C113.321 32.384 113.46 31.9893 113.588 31.648C113.737 31.2853 113.833 31.0613 113.876 30.976C113.961 30.976 114.036 30.9013 114.1 30.752C114.164 30.6027 114.196 30.4533 114.196 30.304C114.196 30.1333 114.228 29.9413 114.292 29.728C114.377 29.5147 114.463 29.3653 114.548 29.28C114.548 29.1733 114.569 29.056 114.612 28.928C114.676 28.7787 114.708 28.6613 114.708 28.576C114.708 28.4907 114.729 28.4053 114.772 28.32C114.836 28.2347 114.868 28.1493 114.868 28.064C115.017 27.7867 115.209 27.3493 115.444 26.752C115.7 26.1333 115.967 25.4507 116.244 24.704C116.543 23.9573 116.82 23.2213 117.076 22.496C117.332 21.7707 117.535 21.1627 117.684 20.672C117.855 20.16 117.94 19.8507 117.94 19.744C117.94 19.5733 118.004 19.4133 118.132 19.264C118.26 19.1147 118.409 19.04 118.58 19.04C118.644 18.976 118.793 18.9333 119.028 18.912C119.263 18.8693 119.423 18.848 119.508 18.848C119.508 18.848 119.551 18.8907 119.636 18.976C119.721 19.0613 119.849 19.1893 120.02 19.36C120.191 19.5093 120.351 19.68 120.5 19.872C120.671 20.064 120.756 20.288 120.756 20.544C120.756 20.8213 120.713 21.088 120.628 21.344C120.564 21.6 120.436 21.952 120.244 22.4C120.052 22.8267 119.753 23.4667 119.348 24.32C119.177 24.7467 118.996 25.152 118.804 25.536C118.612 25.8987 118.516 26.1227 118.516 26.208C118.516 26.2933 118.473 26.4213 118.388 26.592C118.324 26.7627 118.249 26.976 118.164 27.232C118.079 27.4027 117.961 27.6587 117.812 28C117.663 28.32 117.503 28.672 117.332 29.056C117.183 29.4187 117.055 29.7387 116.948 30.016C116.841 30.272 116.788 30.4213 116.788 30.464C116.788 30.5493 116.777 30.6347 116.756 30.72C116.756 30.8053 116.713 30.8907 116.628 30.976C116.543 30.976 116.489 31.04 116.468 31.168C116.468 31.2747 116.468 31.328 116.468 31.328C116.468 31.5413 116.297 32.1067 115.956 33.024C115.615 34.1973 115.295 35.2747 114.996 36.256C114.719 37.2373 114.58 38.0267 114.58 38.624C114.58 39.136 114.495 39.5307 114.324 39.808C114.175 40.0853 114.015 40.2667 113.844 40.352ZM124.62 40.576C123.446 40.576 122.54 40.2347 121.9 39.552C121.281 38.8693 120.972 37.824 120.972 36.416C120.972 35.648 121.11 34.8053 121.388 33.888C121.686 32.9707 122.07 32.0747 122.54 31.2C123.03 30.3253 123.564 29.568 124.14 28.928C124.716 28.2667 125.292 27.808 125.868 27.552C126.081 27.4453 126.305 27.3707 126.54 27.328C126.796 27.264 127.041 27.232 127.276 27.232C127.532 27.232 127.809 27.2533 128.108 27.296C128.428 27.3173 128.726 27.3813 129.004 27.488C129.494 27.6373 129.921 27.9253 130.284 28.352C130.668 28.7787 130.86 29.3973 130.86 30.208C130.86 30.4213 130.838 30.656 130.796 30.912C130.753 31.1467 130.678 31.3813 130.572 31.616C130.294 32.32 129.868 32.992 129.292 33.632C128.737 34.272 128.15 34.72 127.532 34.976C127.361 35.0613 127.19 35.1253 127.02 35.168C126.87 35.1893 126.71 35.2 126.54 35.2C126.092 35.2 125.686 35.136 125.324 35.008C124.982 34.88 124.662 34.7093 124.364 34.496L124.108 34.272L123.948 34.592C123.798 34.9973 123.692 35.3387 123.628 35.616C123.585 35.8933 123.564 36.096 123.564 36.224C123.564 36.48 123.574 36.7467 123.596 37.024C123.617 37.28 123.681 37.4933 123.788 37.664C123.873 37.7707 123.98 37.856 124.108 37.92C124.257 37.984 124.438 38.016 124.652 38.016C124.78 38.016 124.897 38.016 125.004 38.016C125.132 37.9947 125.238 37.9733 125.324 37.952C125.708 37.8667 126.017 37.728 126.252 37.536C126.508 37.3227 126.774 37.1413 127.052 36.992L127.18 36.928L127.148 36.832C127.51 36.64 127.756 36.5227 127.884 36.48C128.012 36.416 128.108 36.3627 128.172 36.32C128.257 36.2347 128.353 36.192 128.46 36.192C128.758 36.1493 129.046 36.2347 129.324 36.448C129.622 36.64 129.772 36.8853 129.772 37.184C129.772 37.312 129.676 37.5147 129.484 37.792C129.313 38.0693 129.089 38.3467 128.812 38.624C128.556 38.88 128.289 39.0827 128.012 39.232C127.948 39.2533 127.884 39.2853 127.82 39.328C127.756 39.3493 127.692 39.3813 127.628 39.424H127.66C127.468 39.68 127.276 39.808 127.084 39.808H126.828C126.742 39.9573 126.465 40.1173 125.996 40.288C125.526 40.48 125.068 40.576 124.62 40.576ZM126.284 32.864C126.476 32.864 126.646 32.832 126.796 32.768C126.966 32.704 127.126 32.6293 127.276 32.544C127.788 32.1813 128.118 31.712 128.268 31.136C128.417 30.56 128.364 30.1227 128.108 29.824C128.065 29.76 128.012 29.7173 127.948 29.696C127.884 29.6533 127.809 29.632 127.724 29.632C127.489 29.632 127.222 29.7067 126.924 29.856C126.646 30.0053 126.369 30.2187 126.092 30.496C125.814 30.7733 125.558 31.104 125.324 31.488L124.908 32.16C124.95 32.1387 124.982 32.128 125.004 32.128C125.046 32.1067 125.078 32.096 125.1 32.096C125.292 32.096 125.42 32.16 125.484 32.288C125.548 32.416 125.622 32.544 125.708 32.672C125.814 32.8 126.006 32.864 126.284 32.864Z" fill="#2F3B69"/>
</svg>
