<svg width="64" height="51" viewBox="0 0 64 51" fill="none" xmlns="http://www.w3.org/2000/svg">
<path d="M56.6403 24.3571C56.3514 24.5025 56.3514 24.6479 56.6403 24.7934C61.2134 27.1685 63.5 31.1189 63.5 36.6447C63.5 41.3465 61.9114 44.9092 58.7343 47.3328C55.5571 49.7079 51.3931 50.8955 46.2423 50.8955H34.4105C34.4105 51.4148 34.3586 49.8542 34.4105 49.3375C35.5 38.5 25.1266 42.0251 26.674 42.0251V0.872494C26.674 0.630169 26.7462 0.436248 26.8906 0.290832C27.0831 0.0969099 27.2998 0 27.5405 0H45.6646C57.0735 0 62.7779 4.6533 62.7779 13.9599C62.7779 18.8071 60.7321 22.2728 56.6403 24.3571ZM37.2163 8.79765C36.9757 8.79765 36.8553 8.91886 36.8553 9.16119V20.5036C36.8553 20.7459 36.9757 20.8671 37.2163 20.8671H45.6646C47.9271 20.8671 49.6843 20.334 50.9358 19.2676C52.1874 18.2012 52.8132 16.747 52.8132 14.9051C52.8132 13.0147 52.1874 11.5363 50.9358 10.4699C49.6843 9.35511 47.9271 8.79765 45.6646 8.79765H37.2163ZM46.2423 42.0251C48.4567 42.0251 50.1897 41.4677 51.4413 40.3528C52.6929 39.1895 53.3187 37.6141 53.3187 35.6268C53.3187 33.6395 52.6929 32.0884 51.4413 30.9735C50.1897 29.8102 48.4326 29.2285 46.1701 29.2285H37.2163C36.9757 29.2285 36.8553 29.3498 36.8553 29.5921V41.6616C36.8553 41.9039 36.9757 42.0251 37.2163 42.0251H46.2423Z" fill="#D55816"/>
<rect x="32.5" y="8" width="23" height="35" fill="#D55816"/>
<path d="M25.4488 0H37.1594V34.6228H16.2839L25.4488 0Z" fill="#D55816"/>
<path d="M35 51C34.4773 51 33.9883 49.66 33.8458 49.1847L31.9924 42.8406C31.8974 42.6505 31.7786 42.5555 31.636 42.5555H15.3837C15.2411 42.5555 15.1224 42.6505 15.0273 42.8406L13.1739 49.1847C13.0314 49.66 12.5228 51 12 51H1.5C1.21487 51 0.5 51 0 51C0 51 0.461985 49.2323 0.557025 48.8996L15.8114 0.712823C15.9539 0.237574 16.2629 0 16.738 0H30.2104C30.6856 0 30.9945 0.237574 31.137 0.712823L46.4627 48.8996C46.5103 48.9946 47.1426 51 47 51C45 51 46.5228 51 46 51H35ZM17.8786 33.0037C17.8311 33.2888 17.9261 33.4313 18.1637 33.4313H28.7847C29.0699 33.4313 29.165 33.2888 29.0699 33.0037L23.6524 14.6841C23.605 14.494 23.5337 14.4227 23.4386 14.4703C23.3436 14.4703 23.2723 14.5416 23.2247 14.6841L17.8786 33.0037Z" fill="#2F3B69"/>
</svg>
