<svg width="45" height="68" viewBox="0 0 45 68" fill="none" xmlns="http://www.w3.org/2000/svg">
<g clip-path="url(#clip0_83_353)">
<path d="M14.0777 10.3324C14.0777 12.3054 12.4713 13.873 10.5109 13.9C8.5505 13.927 6.94407 12.3054 6.91684 10.3594C6.88961 8.41349 8.52327 6.8189 10.4837 6.79187C12.4713 6.79187 14.0777 8.38647 14.0777 10.3324ZM13.1248 10.3324C13.1248 8.89998 11.954 7.73782 10.5109 7.76484C9.06783 7.76484 7.89704 8.92701 7.92426 10.3594C7.92426 11.7919 9.09506 12.954 10.5381 12.927C11.954 12.927 13.1248 11.7648 13.1248 10.3324Z" fill="url(#paint0_linear_83_353)"/>
<path d="M15.0851 14.873V10.3324C15.0851 8.38647 16.6915 6.79187 18.6519 6.79187C20.6123 6.79187 22.2187 8.38647 22.2187 10.3324C22.2187 12.2784 20.6123 13.9 18.6519 13.873C17.6717 13.873 16.746 13.4675 16.0653 12.7648V14.8459L15.0851 14.873ZM18.6519 12.927C20.095 12.927 21.2658 11.7648 21.2658 10.3324C21.2658 8.89998 20.095 7.73782 18.6519 7.73782C17.2088 7.73782 16.0381 8.89998 16.0381 10.3324C16.0653 11.7648 17.2088 12.927 18.6519 12.927Z" fill="url(#paint1_linear_83_353)"/>
<path d="M38.5554 10.3324C38.5554 12.3054 36.949 13.873 34.9886 13.9C33.0009 13.9 31.4217 12.3054 31.3945 10.3594C31.3673 8.41349 33.0009 6.8189 34.9613 6.79187C36.949 6.79187 38.5282 8.38647 38.5554 10.3324ZM37.5752 10.3324C37.5752 8.89998 36.4044 7.73782 34.9613 7.76484C33.5183 7.76484 32.3475 8.92701 32.3747 10.3594C32.3747 11.7919 33.5455 12.954 34.9886 12.927C36.4044 12.927 37.5752 11.7648 37.5752 10.3324Z" fill="url(#paint2_linear_83_353)"/>
<path d="M7.18909 50.0892V46.1703L18.8698 35.3054C21.3203 33.0352 22.9812 30.7379 22.9812 28.0892C22.9812 24.6027 21.048 22.0352 17.4267 22.0352C13.9143 22.0352 11.8178 24.5487 11.8178 28.4406V28.873H7.24354V28.4406C7.24354 22.0081 11.1099 17.7649 17.4539 17.7649C23.7435 17.7649 27.6643 22.1703 27.6643 28.0892C27.6643 32.2514 25.6767 34.9271 22.246 38.0352L13.6421 45.873V45.9811H27.2559V50.0892H7.18909Z" fill="url(#paint3_linear_83_353)"/>
<path d="M43.7015 56.1973H1.71636C1.28072 56.1973 0.953987 55.846 0.953987 55.4406V1.65678C0.926759 1.25138 1.28072 0.900024 1.71636 0.900024H43.7287C44.1644 0.900024 44.5183 1.25138 44.5183 1.65678V55.4135C44.4911 55.873 44.1372 56.1973 43.7015 56.1973ZM2.47874 54.6568H42.9391V2.44056H2.47874V54.6568Z" fill="url(#paint4_linear_83_353)"/>
<path d="M26.8475 12.9271C25.4045 12.9271 24.2337 11.7649 24.2337 10.3325C24.2337 8.90005 25.4045 7.73789 26.8475 7.73789C28.0183 7.73789 29.053 8.52167 29.3525 9.62978H30.3599C29.9515 7.71086 28.0728 6.46762 26.1396 6.846C24.2065 7.22438 22.9268 9.1433 23.3079 11.0622C23.6891 12.9811 25.5951 14.2244 27.5555 13.846C28.9713 13.5487 30.0604 12.4676 30.3599 11.0622H29.3525C29.0258 12.1703 27.9911 12.9271 26.8475 12.9271Z" fill="url(#paint5_linear_83_353)"/>
<path d="M32.6742 18.3865H37.6569V23.3594H32.6742V18.3865Z" fill="url(#paint6_linear_83_353)"/>
<path d="M32.6742 24.9811H37.6569V50.0892H32.6742V24.9811Z" fill="url(#paint7_linear_83_353)"/>
<path d="M3.18661 59.7649C3.15938 59.6839 3.13215 59.5758 3.0777 59.4947C3.02324 59.4136 2.96879 59.3325 2.8871 59.2785C2.80542 59.2244 2.72374 59.1704 2.64205 59.1433C2.53314 59.1163 2.42423 59.0893 2.28809 59.0893C2.12473 59.0893 1.96136 59.1163 1.798 59.1974C1.66186 59.2785 1.55295 59.3866 1.47126 59.4947C1.38958 59.6298 1.3079 59.7649 1.28067 59.9271C1.22621 60.0893 1.22621 60.2514 1.22621 60.4136C1.22621 60.5758 1.25344 60.7379 1.28067 60.9001C1.3079 61.0622 1.38958 61.1974 1.47126 61.3325C1.55295 61.4676 1.66186 61.5758 1.798 61.6298C1.96136 61.7109 2.12473 61.7379 2.28809 61.7379C2.42423 61.7379 2.53314 61.7109 2.64205 61.6568C2.75097 61.6028 2.83265 61.5487 2.91433 61.4676C2.99602 61.3866 3.05047 61.2785 3.0777 61.1704C3.13215 61.0622 3.15938 60.9271 3.15938 60.819H3.75839C3.75839 61.0082 3.70394 61.2244 3.62225 61.3866C3.54057 61.5487 3.43166 61.7109 3.32275 61.846C3.18661 61.9812 3.02324 62.0622 2.85988 62.1433C2.69651 62.2244 2.50592 62.2514 2.28809 62.2514C2.04304 62.2514 1.798 62.1974 1.58017 62.1163C1.36235 62.0352 1.19899 61.9001 1.03562 61.7109C0.899481 61.5487 0.763342 61.3325 0.708886 61.1163C0.627203 60.9001 0.599976 60.6568 0.599976 60.4136C0.599976 60.1703 0.627203 59.9271 0.708886 59.7109C0.79057 59.4947 0.899481 59.3055 1.03562 59.1163C1.19899 58.9541 1.36235 58.819 1.58017 58.7109C1.798 58.6028 2.04304 58.5487 2.28809 58.5487C2.47869 58.5487 2.66928 58.5758 2.85988 58.6298C3.02324 58.6839 3.18661 58.7649 3.32275 58.8731C3.45889 58.9812 3.5678 59.1163 3.64948 59.2514C3.73116 59.4136 3.78562 59.5758 3.81285 59.7649H3.18661ZM6.53562 58.5758C6.78067 58.5758 7.02572 58.6298 7.24354 58.7379C7.46136 58.819 7.62473 58.9812 7.78809 59.1433C7.92423 59.3055 8.06037 59.5217 8.11483 59.7379C8.19651 59.9541 8.22374 60.1974 8.22374 60.4406C8.22374 60.6839 8.19651 60.9271 8.11483 61.1433C8.03314 61.3595 7.92423 61.5487 7.76087 61.7379C7.5975 61.9001 7.43413 62.0352 7.21631 62.1433C6.75344 62.3325 6.23611 62.3325 5.80047 62.1433C5.58265 62.0622 5.41928 61.9271 5.25592 61.7379C5.11978 61.5758 5.01087 61.3595 4.95641 61.1433C4.87473 60.9001 4.8475 60.6839 4.8475 60.4406C4.8475 60.1974 4.87473 59.9541 4.95641 59.7379C5.03809 59.5217 5.14701 59.3325 5.28314 59.1433C5.44651 58.9812 5.60988 58.846 5.8277 58.7379C6.04552 58.6298 6.29057 58.5758 6.53562 58.5758ZM6.53562 59.0622C6.37225 59.0622 6.20889 59.0893 6.04552 59.1704C5.90938 59.2514 5.80047 59.3595 5.71879 59.4676C5.6371 59.6028 5.55542 59.7379 5.52819 59.9001C5.47374 60.0622 5.47374 60.2244 5.47374 60.3866C5.47374 60.5487 5.50097 60.7109 5.52819 60.8731C5.55542 61.0352 5.6371 61.1704 5.71879 61.3055C5.80047 61.4406 5.90938 61.5487 6.04552 61.6028C6.34502 61.7649 6.72621 61.7649 7.02572 61.6028C7.16186 61.5217 7.27077 61.4136 7.35245 61.3055C7.43413 61.1704 7.51582 61.0352 7.54304 60.8731C7.5975 60.7109 7.5975 60.5487 7.5975 60.3866C7.5975 60.2244 7.57027 60.0622 7.54304 59.9001C7.51582 59.7379 7.43413 59.6028 7.35245 59.4676C7.27077 59.3325 7.16186 59.2514 7.02572 59.1704C6.86235 59.1163 6.69898 59.0622 6.53562 59.0622ZM9.44899 58.6568H10.3203L11.3005 61.4136L12.2534 58.6568H13.1247V62.1703H12.5257V59.4676L11.5455 62.1703H11.0282L10.048 59.4676V62.1703H9.44899V58.6568ZM14.5133 58.6568H16.0653C16.2831 58.6568 16.4737 58.6839 16.6916 58.7649C16.9638 58.8731 17.1544 59.1163 17.2361 59.3866C17.2906 59.6298 17.2906 59.8731 17.2361 60.0893C17.2089 60.2244 17.1544 60.3325 17.0455 60.4406C16.9366 60.5487 16.8277 60.6568 16.6916 60.7109C16.501 60.792 16.2831 60.819 16.0653 60.819H15.1124V62.1703H14.4861V58.6568H14.5133ZM15.1396 60.3055H16.0381C16.1198 60.3055 16.1742 60.3055 16.2559 60.2785C16.3376 60.2514 16.3921 60.2244 16.4465 60.1704C16.501 60.1163 16.5554 60.0622 16.5826 60.0082C16.6099 59.9271 16.6371 59.819 16.6371 59.7379C16.6371 59.6298 16.6099 59.5487 16.5826 59.4406C16.5554 59.3595 16.501 59.3055 16.4465 59.2514C16.3921 59.1974 16.3104 59.1704 16.2559 59.1704C16.1742 59.1433 16.0925 59.1433 16.0109 59.1433H15.0851V60.3055H15.1396ZM18.4886 58.6568H21.048V59.1974H19.1148V60.1163H20.9119V60.6298H19.1148V61.6568H21.0752V62.1974H18.4886V58.6568ZM19.9317 57.6028H20.6124L19.9044 58.3055H19.496L19.9317 57.6028ZM21.9465 58.6568H24.8054V59.1974H23.6891V62.1703H23.0628V59.1974H21.9465V58.6568ZM25.8673 58.6568H28.4267V59.1974H26.4935V60.1163H28.2906V60.6298H26.4935V61.6568H28.4539V62.1974H25.8673V58.6568ZM29.6247 58.6568H30.2782L31.8846 61.2514V58.6568H32.4836V62.1703H31.8302L30.2237 59.5758H30.1965V62.1703H29.5975L29.6247 58.6568ZM36.2955 59.7649C36.2683 59.6839 36.2411 59.5758 36.1866 59.4947C36.1321 59.4136 36.0777 59.3325 35.996 59.2785C35.9143 59.2244 35.8326 59.1704 35.751 59.1433C35.6421 59.1163 35.5331 59.0893 35.397 59.0893C35.2336 59.0893 35.0703 59.1163 34.9069 59.1974C34.7708 59.2785 34.6619 59.3866 34.5802 59.4947C34.4985 59.6298 34.4168 59.7649 34.3896 59.9271C34.3351 60.0893 34.3351 60.2514 34.3351 60.4136C34.3351 60.5758 34.3624 60.7379 34.3896 60.9001C34.4168 61.0622 34.4985 61.1974 34.5802 61.3325C34.6619 61.4676 34.7708 61.5487 34.9069 61.6298C35.0703 61.7109 35.2336 61.7379 35.397 61.7379C35.5331 61.7379 35.6421 61.7109 35.7782 61.6568C35.8871 61.6028 35.9688 61.5487 36.0505 61.4676C36.1321 61.3866 36.1866 61.2785 36.2138 61.1704C36.2683 61.0622 36.2955 60.9271 36.2955 60.819H36.8945C36.8945 61.0082 36.8401 61.2244 36.7584 61.3866C36.595 61.7379 36.3227 62.0082 35.9688 62.1433C35.5331 62.3055 35.0703 62.2785 34.6619 62.0893C34.444 62.0082 34.2807 61.8731 34.1173 61.6839C33.9812 61.5217 33.845 61.3055 33.7906 61.0893C33.7089 60.846 33.6817 60.6298 33.6817 60.3866C33.6817 60.1433 33.7089 59.9001 33.7906 59.6839C33.8722 59.4676 33.9812 59.2785 34.1173 59.0893C34.2807 58.9271 34.444 58.792 34.6619 58.6839C34.8797 58.5758 35.1247 58.5217 35.3698 58.5217C35.5604 58.5217 35.751 58.5487 35.9416 58.6028C36.1049 58.6568 36.2683 58.7379 36.4044 58.846C36.5406 58.9541 36.6495 59.0893 36.7312 59.2244C36.8128 59.3866 36.8673 59.5487 36.8945 59.7379L36.2955 59.7649ZM38.147 58.6568H40.7064V59.1974H38.7732V60.1163H40.5703V60.6298H38.7732V61.6568H40.7336V62.1974H38.147V58.6568ZM42.3128 61.0082C42.3128 61.1163 42.3401 61.2514 42.3945 61.3595C42.449 61.4406 42.5034 61.5217 42.5851 61.6028C42.6668 61.6568 42.7485 61.7109 42.8574 61.7379C42.9663 61.7649 43.0752 61.792 43.2114 61.7649C43.3203 61.7649 43.4564 61.7649 43.5653 61.7109C43.647 61.6839 43.7287 61.6298 43.8104 61.6028C43.8648 61.5487 43.9193 61.4947 43.9465 61.4406C43.9737 61.3866 44.001 61.3055 43.9737 61.2514C43.9737 61.1433 43.9465 61.0352 43.8921 60.9541C43.8376 60.9001 43.7559 60.846 43.7015 60.819C43.5653 60.7649 43.4292 60.7379 43.2658 60.6839C43.1024 60.6298 42.8846 60.6028 42.6396 60.5217C42.5034 60.4947 42.3673 60.4406 42.2584 60.3595C42.1767 60.3055 42.095 60.2244 42.0133 60.1433C41.9589 60.0622 41.9044 59.9812 41.8772 59.9001C41.85 59.819 41.85 59.7109 41.85 59.6298C41.85 59.4676 41.8772 59.3055 41.9589 59.1704C42.0406 59.0352 42.1222 58.9271 42.2584 58.846C42.3945 58.7649 42.5307 58.6839 42.6668 58.6568C42.8302 58.6028 42.9935 58.6028 43.1297 58.6028C43.293 58.6028 43.4836 58.6298 43.647 58.6839C43.8104 58.7379 43.9465 58.792 44.0826 58.9001C44.2188 59.0082 44.3005 59.1163 44.3822 59.2514C44.4638 59.4136 44.4911 59.5758 44.4911 59.7379H43.8648C43.8648 59.5487 43.7831 59.3595 43.6198 59.2514C43.4564 59.1433 43.2658 59.1163 43.1024 59.1163C43.0208 59.1163 42.9391 59.1163 42.8846 59.1433C42.8029 59.1433 42.7485 59.1704 42.6668 59.2244C42.6123 59.2514 42.5579 59.3055 42.5034 59.3595C42.3945 59.5217 42.4218 59.7379 42.5579 59.8731C42.6396 59.9541 42.7485 60.0082 42.8574 60.0352L43.0208 60.0622L43.3203 60.1433L43.647 60.2244L43.8921 60.2785C44.001 60.3055 44.1099 60.3595 44.1916 60.4406C44.2732 60.4947 44.3549 60.5758 44.4094 60.6568C44.4638 60.7379 44.5183 60.819 44.5455 60.9271C44.5727 61.0082 44.5727 61.1163 44.5727 61.1974C44.5727 61.3866 44.5455 61.5487 44.4638 61.7109C44.3822 61.846 44.2732 61.9541 44.1371 62.0622C44.001 62.1433 43.8376 62.2244 43.6742 62.2514C43.3203 62.3325 42.9391 62.3325 42.5851 62.2514C42.4218 62.1974 42.2584 62.1163 42.1222 62.0352C41.9861 61.9271 41.8772 61.792 41.7955 61.6568C41.7138 61.4676 41.6594 61.2785 41.6594 61.0893L42.3128 61.0082ZM1.33512 64.3325H1.96136V67.819H1.33512V64.3325ZM4.30295 64.3325H4.95641L6.56285 66.9001V64.3325H7.13463V67.819H6.50839L4.90196 65.2785H4.87473V67.819H4.30295V64.3325ZM9.50344 64.3325H10.9465C11.1916 64.3325 11.4366 64.3866 11.6544 64.4676C11.845 64.5487 12.0084 64.6839 12.1445 64.846C12.2807 65.0082 12.3624 65.1974 12.4168 65.3866C12.5257 65.819 12.5257 66.3055 12.4168 66.7379C12.3624 66.9271 12.2807 67.1163 12.1445 67.3055C12.0084 67.4676 11.845 67.6028 11.6544 67.6839C11.4366 67.792 11.1916 67.819 10.9465 67.819H9.50344V64.3325ZM10.1025 67.3055H10.7015C10.8921 67.3055 11.1099 67.2785 11.3005 67.1974C11.4366 67.1433 11.5727 67.0352 11.6544 66.9271C11.7361 66.819 11.7906 66.6839 11.8178 66.5217C11.8723 66.1974 11.8723 65.8731 11.8178 65.5487C11.7906 65.4136 11.7361 65.2785 11.6544 65.1433C11.5727 65.0352 11.4366 64.9271 11.3005 64.8731C11.1099 64.792 10.9193 64.7649 10.7015 64.7649H10.1025V67.3055ZM14.6223 64.3325H15.2485V66.3595C15.2485 66.4676 15.2485 66.6028 15.2757 66.7109C15.2757 66.819 15.3302 66.9271 15.3846 67.0352C15.4391 67.1433 15.5208 67.2244 15.6297 67.2785C15.9292 67.4136 16.2559 67.4136 16.5554 67.2785C16.6643 67.2244 16.746 67.1433 16.8005 67.0352C16.8549 66.9271 16.8822 66.819 16.9094 66.7109C16.9094 66.5758 16.9366 66.4676 16.9366 66.3595V64.3325H17.5628V66.5758C17.5628 66.7649 17.5356 66.9812 17.4539 67.1704C17.3995 67.3325 17.2906 67.4676 17.1544 67.5758C17.0183 67.6839 16.8549 67.7649 16.6916 67.819C16.3104 67.9271 15.902 67.9271 15.5208 67.819C15.3574 67.7649 15.194 67.6839 15.0579 67.5758C14.9218 67.4676 14.8401 67.3055 14.7584 67.1704C14.6767 66.9812 14.6495 66.792 14.6495 66.5758L14.6223 64.3325ZM20.2312 66.6568C20.2312 66.7649 20.2584 66.9001 20.3128 67.0082C20.3673 67.0893 20.4218 67.1704 20.5034 67.2514C20.5851 67.3055 20.6668 67.3595 20.7757 67.3866C20.8846 67.4136 20.9935 67.4406 21.1297 67.4406C21.2386 67.4406 21.3747 67.4136 21.4836 67.3866C21.5653 67.3595 21.647 67.3325 21.7015 67.2785C21.7559 67.2244 21.8104 67.1704 21.8376 67.1163C21.8648 67.0622 21.8648 66.9812 21.8921 66.9271C21.8921 66.819 21.8648 66.7109 21.8104 66.6298C21.7559 66.5758 21.6742 66.5217 21.6198 66.4947C21.4836 66.4406 21.3203 66.3866 21.1841 66.3595L20.5851 66.1974C20.449 66.1704 20.3401 66.1163 20.2039 66.0352C20.1223 65.9812 20.0406 65.9001 19.9589 65.819C19.9044 65.7379 19.85 65.6568 19.8227 65.5758C19.7955 65.4947 19.7955 65.3866 19.7955 65.3055C19.7955 65.1433 19.8227 64.9812 19.9044 64.846C19.9861 64.7109 20.0678 64.6028 20.2039 64.5217C20.3401 64.4406 20.4762 64.3595 20.6124 64.3325C20.7757 64.3055 20.9119 64.2785 21.0752 64.2785C21.2386 64.2785 21.4292 64.3055 21.5925 64.3595C21.7559 64.4136 21.8921 64.4676 22.0282 64.5758C22.3005 64.7649 22.4638 65.0893 22.4366 65.4136H21.8104C21.8104 65.2244 21.7287 65.0622 21.5925 64.9271C21.4292 64.819 21.2658 64.792 21.0752 64.792C20.9935 64.792 20.9391 64.792 20.8574 64.819C20.7757 64.819 20.7213 64.846 20.6396 64.9001C20.5851 64.9271 20.5307 64.9812 20.4762 65.0352C20.4218 65.0893 20.4218 65.1704 20.4218 65.2514C20.4218 65.3595 20.449 65.4676 20.5307 65.5487C20.6123 65.6298 20.7213 65.6839 20.8302 65.7109L20.9935 65.7649L21.293 65.846L21.6198 65.9271L21.8376 65.9812C21.9465 66.0082 22.0554 66.0622 22.1371 66.1163C22.2188 66.1704 22.3005 66.2514 22.3549 66.3325C22.4094 66.4136 22.4638 66.4947 22.4911 66.5758C22.5183 66.6568 22.5455 66.7649 22.5455 66.846C22.5455 67.0082 22.5183 67.1974 22.4366 67.3595C22.3549 67.4947 22.246 67.6298 22.1099 67.7109C21.9737 67.792 21.8376 67.8731 21.6742 67.9001C21.5109 67.9271 21.3475 67.9541 21.1569 67.9541C20.9663 67.9541 20.7757 67.9271 20.5851 67.8731C20.4218 67.819 20.2584 67.7649 20.1222 67.6568C19.9861 67.5487 19.8772 67.4136 19.7955 67.2785C19.7138 67.1163 19.6594 66.9271 19.6866 66.7109L20.2312 66.6568ZM24.2881 64.3325H27.1198V64.846H26.0034V67.792H25.3772V64.846H24.2881V64.3325ZM29.1619 64.3325H30.8227C31.1222 64.3055 31.449 64.3866 31.694 64.5758C31.8846 64.7379 31.9935 65.0082 31.9935 65.2785C31.9935 65.4136 31.9663 65.5487 31.9119 65.6839C31.8846 65.792 31.8029 65.8731 31.7485 65.9541C31.694 66.0082 31.6396 66.0622 31.5579 66.0893C31.5034 66.1163 31.449 66.1433 31.4218 66.1433C31.4762 66.1433 31.5307 66.1704 31.5851 66.1974C31.6396 66.2244 31.694 66.2785 31.7485 66.3325C31.8029 66.3866 31.8574 66.4676 31.8846 66.5487C31.9119 66.6568 31.9391 66.7649 31.9391 66.9001C31.9391 67.0893 31.9663 67.2785 31.9935 67.4676C32.0208 67.6028 32.048 67.7109 32.1297 67.819H31.4762C31.4218 67.7379 31.3945 67.6568 31.3945 67.5758V67.3055C31.3945 67.1704 31.3945 67.0352 31.3673 66.9001C31.3673 66.792 31.3128 66.7109 31.2584 66.6028C31.2039 66.5217 31.1223 66.4676 31.0406 66.4406C30.9317 66.4136 30.8227 66.3866 30.6866 66.3866H29.7881V67.819H29.1891L29.1619 64.3325ZM29.7881 65.9271H30.7955C30.9589 65.9271 31.1222 65.9001 31.2312 65.792C31.3401 65.6839 31.3945 65.5217 31.3945 65.3866C31.3945 65.3055 31.3945 65.1974 31.3401 65.1163C31.3128 65.0622 31.2584 64.9812 31.2039 64.9541C31.1495 64.9271 31.0678 64.9001 31.0133 64.8731C30.9317 64.8731 30.85 64.846 30.7955 64.846H29.7881V65.9271ZM34.2534 64.3325H34.8797V67.819H34.2534V64.3325ZM37.2485 64.3325H39.7807V64.846H37.8747V65.7649H39.6445V66.2514H37.8747V67.2785H39.8079V67.792H37.2485V64.3325ZM42.3673 66.6568C42.3673 66.7649 42.3945 66.9001 42.449 67.0082C42.5034 67.0893 42.5579 67.1704 42.6396 67.2514C42.7213 67.3055 42.8029 67.3595 42.9118 67.3866C43.0208 67.4136 43.1297 67.4406 43.2658 67.4406C43.3747 67.4406 43.5109 67.4136 43.6198 67.3866C43.7015 67.3595 43.7831 67.3055 43.8376 67.2785C43.8921 67.2244 43.9465 67.1704 43.9737 67.1163C44.001 67.0622 44.001 66.9812 44.001 66.9271C44.0282 66.819 44.001 66.7109 43.9193 66.6298C43.8648 66.5758 43.7831 66.5217 43.7287 66.4947C43.5925 66.4406 43.4292 66.3866 43.293 66.3595L42.694 66.1974C42.5579 66.1704 42.449 66.1163 42.3128 66.0352C42.2312 65.9812 42.1495 65.9001 42.0678 65.819C42.0133 65.7379 41.9589 65.6568 41.9317 65.5758C41.9044 65.4947 41.9044 65.3866 41.9044 65.3055C41.9044 65.1433 41.9317 64.9812 42.0133 64.846C42.095 64.7109 42.1767 64.6028 42.3128 64.5217C42.449 64.4406 42.5851 64.3595 42.7213 64.3325C42.8846 64.3055 43.0208 64.2785 43.1841 64.2785C43.3475 64.2785 43.5381 64.3055 43.7015 64.3595C43.8648 64.4136 44.001 64.4676 44.1371 64.5758C44.246 64.6568 44.3549 64.792 44.4366 64.9271C44.5183 65.0893 44.5455 65.2514 44.5455 65.4136H43.8921C43.8921 65.2244 43.8104 65.0622 43.6742 64.9271C43.5109 64.819 43.3475 64.792 43.1569 64.792C43.0752 64.792 43.0208 64.792 42.9391 64.819C42.8574 64.819 42.8029 64.846 42.7213 64.9001C42.6668 64.9271 42.6124 64.9812 42.5579 65.0352C42.449 65.1974 42.4762 65.4136 42.6124 65.5487C42.694 65.6298 42.8029 65.6839 42.9118 65.7109L43.0752 65.7649L43.3747 65.846L43.7015 65.9271L43.9193 65.9812C44.0282 66.0082 44.1371 66.0622 44.2188 66.1163C44.3005 66.1704 44.3821 66.2514 44.4366 66.3325C44.4911 66.4136 44.5455 66.4947 44.5727 66.5758C44.6 66.6568 44.6 66.7649 44.6 66.846C44.6 67.0082 44.5727 67.1974 44.4911 67.3595C44.4094 67.4947 44.3005 67.6298 44.1643 67.7109C44.0282 67.792 43.8648 67.8731 43.7287 67.9001C43.3747 67.9812 42.9935 67.9812 42.6668 67.8731C42.5034 67.819 42.3401 67.7649 42.2039 67.6568C42.0678 67.5487 41.9589 67.4136 41.9044 67.2785C41.8227 67.1163 41.7683 66.9271 41.7955 66.7109L42.3673 66.6568Z" fill="#1F3765"/>
</g>
<defs>
<linearGradient id="paint0_linear_83_353" x1="-12.8064" y1="65.5732" x2="15.1075" y2="-1.55235" gradientUnits="userSpaceOnUse">
<stop stop-color="#1F3765"/>
<stop offset="0.06" stop-color="#283564"/>
<stop offset="0.15" stop-color="#423063"/>
<stop offset="0.28" stop-color="#6B2861"/>
<stop offset="0.42" stop-color="#A41D5E"/>
<stop offset="0.52" stop-color="#D3145B"/>
<stop offset="0.99" stop-color="#F29222"/>
</linearGradient>
<linearGradient id="paint1_linear_83_353" x1="-5.86991" y1="68.4567" x2="22.0439" y2="1.33116" gradientUnits="userSpaceOnUse">
<stop stop-color="#1F3765"/>
<stop offset="0.06" stop-color="#283564"/>
<stop offset="0.15" stop-color="#423063"/>
<stop offset="0.28" stop-color="#6B2861"/>
<stop offset="0.42" stop-color="#A41D5E"/>
<stop offset="0.52" stop-color="#D3145B"/>
<stop offset="0.99" stop-color="#F29222"/>
</linearGradient>
<linearGradient id="paint2_linear_83_353" x1="8.00017" y1="74.224" x2="35.914" y2="7.10116" gradientUnits="userSpaceOnUse">
<stop stop-color="#1F3765"/>
<stop offset="0.06" stop-color="#283564"/>
<stop offset="0.15" stop-color="#423063"/>
<stop offset="0.28" stop-color="#6B2861"/>
<stop offset="0.42" stop-color="#A41D5E"/>
<stop offset="0.52" stop-color="#D3145B"/>
<stop offset="0.99" stop-color="#F29222"/>
</linearGradient>
<linearGradient id="paint3_linear_83_353" x1="2.82094" y1="72.0687" x2="30.7321" y2="4.94582" gradientUnits="userSpaceOnUse">
<stop stop-color="#1F3765"/>
<stop offset="0.06" stop-color="#283564"/>
<stop offset="0.15" stop-color="#423063"/>
<stop offset="0.28" stop-color="#6B2861"/>
<stop offset="0.42" stop-color="#A41D5E"/>
<stop offset="0.52" stop-color="#D3145B"/>
<stop offset="0.99" stop-color="#F29222"/>
</linearGradient>
<linearGradient id="paint4_linear_83_353" x1="4.11757" y1="72.6079" x2="32.0287" y2="5.48501" gradientUnits="userSpaceOnUse">
<stop stop-color="#1F3765"/>
<stop offset="0.06" stop-color="#283564"/>
<stop offset="0.15" stop-color="#423063"/>
<stop offset="0.28" stop-color="#6B2861"/>
<stop offset="0.42" stop-color="#A41D5E"/>
<stop offset="0.52" stop-color="#D3145B"/>
<stop offset="0.99" stop-color="#F29222"/>
</linearGradient>
<linearGradient id="paint5_linear_83_353" x1="1.08467" y1="71.3471" x2="28.9985" y2="4.2242" gradientUnits="userSpaceOnUse">
<stop stop-color="#1F3765"/>
<stop offset="0.06" stop-color="#283564"/>
<stop offset="0.15" stop-color="#423063"/>
<stop offset="0.28" stop-color="#6B2861"/>
<stop offset="0.42" stop-color="#A41D5E"/>
<stop offset="0.52" stop-color="#D3145B"/>
<stop offset="0.99" stop-color="#F29222"/>
</linearGradient>
<linearGradient id="paint6_linear_83_353" x1="11.9637" y1="75.8724" x2="39.8775" y2="8.74684" gradientUnits="userSpaceOnUse">
<stop stop-color="#1F3765"/>
<stop offset="0.06" stop-color="#283564"/>
<stop offset="0.15" stop-color="#423063"/>
<stop offset="0.28" stop-color="#6B2861"/>
<stop offset="0.42" stop-color="#A41D5E"/>
<stop offset="0.52" stop-color="#D3145B"/>
<stop offset="0.99" stop-color="#F29222"/>
</linearGradient>
<linearGradient id="paint7_linear_83_353" x1="17.9432" y1="78.3565" x2="45.8543" y2="11.2336" gradientUnits="userSpaceOnUse">
<stop stop-color="#1F3765"/>
<stop offset="0.06" stop-color="#283564"/>
<stop offset="0.15" stop-color="#423063"/>
<stop offset="0.28" stop-color="#6B2861"/>
<stop offset="0.42" stop-color="#A41D5E"/>
<stop offset="0.52" stop-color="#D3145B"/>
<stop offset="0.99" stop-color="#F29222"/>
</linearGradient>
<clipPath id="clip0_83_353">
<rect width="44" height="67" fill="white" transform="translate(0.599976 0.900024)"/>
</clipPath>
</defs>
</svg>
